G04 #@! TF.FileFunction,Copper,L2,Bot,Signal*
%FSLAX46Y46*%
G04 Gerber Fmt 4.6, Leading zero omitted, Abs format (unit mm)*
G04 Created by KiCad (PCBNEW 4.0.7) date 02/20/18 21:57:49*
%MOMM*%
%LPD*%
G01*
G04 APERTURE LIST*
%ADD10C,0.100000*%
%ADD11R,1.700000X1.700000*%
%ADD12O,1.700000X1.700000*%
G04 APERTURE END LIST*
D10*
D11*
X54610000Y-24765000D03*
D12*
X52070000Y-24765000D03*
X49530000Y-24765000D03*
X46990000Y-24765000D03*
X44450000Y-24765000D03*
X41910000Y-24765000D03*
X39370000Y-24765000D03*
X36830000Y-24765000D03*
X34290000Y-24765000D03*
X31750000Y-24765000D03*
X29210000Y-24765000D03*
X26670000Y-24765000D03*
X24130000Y-24765000D03*
X21590000Y-24765000D03*
D11*
X21590000Y-47625000D03*
D12*
X24130000Y-47625000D03*
X26670000Y-47625000D03*
X29210000Y-47625000D03*
X31750000Y-47625000D03*
X34290000Y-47625000D03*
X36830000Y-47625000D03*
X39370000Y-47625000D03*
X41910000Y-47625000D03*
X44450000Y-47625000D03*
X46990000Y-47625000D03*
X49530000Y-47625000D03*
X52070000Y-47625000D03*
X54610000Y-47625000D03*
D11*
X21590000Y-47625000D03*
D12*
X24130000Y-47625000D03*
X26670000Y-47625000D03*
X29210000Y-47625000D03*
X31750000Y-47625000D03*
X34290000Y-47625000D03*
X36830000Y-47625000D03*
X39370000Y-47625000D03*
X41910000Y-47625000D03*
X44450000Y-47625000D03*
X46990000Y-47625000D03*
X49530000Y-47625000D03*
X52070000Y-47625000D03*
X54610000Y-47625000D03*
D11*
X54610000Y-24765000D03*
D12*
X52070000Y-24765000D03*
X49530000Y-24765000D03*
X46990000Y-24765000D03*
X44450000Y-24765000D03*
X41910000Y-24765000D03*
X39370000Y-24765000D03*
X36830000Y-24765000D03*
X34290000Y-24765000D03*
X31750000Y-24765000D03*
X29210000Y-24765000D03*
X26670000Y-24765000D03*
X24130000Y-24765000D03*
X21590000Y-24765000D03*
D11*
X95250000Y-65405000D03*
D12*
X95250000Y-67945000D03*
X95250000Y-70485000D03*
D11*
X19050000Y-86360000D03*
D12*
X19050000Y-83820000D03*
X19050000Y-81280000D03*
X19050000Y-78740000D03*
X19050000Y-76200000D03*
X19050000Y-73660000D03*
X19050000Y-71120000D03*
X19050000Y-68580000D03*
D11*
X107950000Y-65405000D03*
D12*
X107950000Y-67945000D03*
X107950000Y-70485000D03*
D11*
X48260000Y-68580000D03*
D12*
X48260000Y-71120000D03*
X48260000Y-73660000D03*
X48260000Y-76200000D03*
X48260000Y-78740000D03*
X48260000Y-81280000D03*
X48260000Y-83820000D03*
X48260000Y-86360000D03*
D11*
X69850000Y-48260000D03*
D12*
X72390000Y-48260000D03*
X74930000Y-48260000D03*
X77470000Y-48260000D03*
X80010000Y-48260000D03*
X82550000Y-48260000D03*
X85090000Y-48260000D03*
X87630000Y-48260000D03*
X90170000Y-48260000D03*
X92710000Y-48260000D03*
X95250000Y-48260000D03*
X97790000Y-48260000D03*
X100330000Y-48260000D03*
X102870000Y-48260000D03*
D11*
X102235000Y-24765000D03*
D12*
X99695000Y-24765000D03*
X97155000Y-24765000D03*
X94615000Y-24765000D03*
X92075000Y-24765000D03*
X89535000Y-24765000D03*
X86995000Y-24765000D03*
X84455000Y-24765000D03*
X81915000Y-24765000D03*
X79375000Y-24765000D03*
X76835000Y-24765000D03*
X74295000Y-24765000D03*
X71755000Y-24765000D03*
X69215000Y-24765000D03*
D11*
X95250000Y-80010000D03*
D12*
X95250000Y-82550000D03*
X95250000Y-85090000D03*
D11*
X55245000Y-86360000D03*
D12*
X55245000Y-83820000D03*
X55245000Y-81280000D03*
X55245000Y-78740000D03*
X55245000Y-76200000D03*
X55245000Y-73660000D03*
X55245000Y-71120000D03*
X55245000Y-68580000D03*
D11*
X107950000Y-80010000D03*
D12*
X107950000Y-82550000D03*
X107950000Y-85090000D03*
D11*
X45720000Y-102870000D03*
D12*
X45720000Y-105410000D03*
X45720000Y-107950000D03*
D11*
X38100000Y-107950000D03*
D12*
X38100000Y-105410000D03*
X38100000Y-102870000D03*
D11*
X85725000Y-68580000D03*
D12*
X85725000Y-71120000D03*
X85725000Y-73660000D03*
X85725000Y-76200000D03*
X85725000Y-78740000D03*
X85725000Y-81280000D03*
X85725000Y-83820000D03*
X85725000Y-86360000D03*
D11*
X59055000Y-102870000D03*
D12*
X59055000Y-105410000D03*
X59055000Y-107950000D03*
D11*
X24765000Y-107950000D03*
D12*
X24765000Y-105410000D03*
X24765000Y-102870000D03*
D11*
X80010000Y-109220000D03*
D12*
X80010000Y-106680000D03*
X80010000Y-104140000D03*
X80010000Y-101600000D03*
D11*
X67310000Y-101600000D03*
D12*
X67310000Y-104140000D03*
X67310000Y-106680000D03*
X67310000Y-109220000D03*
D11*
X102235000Y-109220000D03*
D12*
X102235000Y-106680000D03*
X102235000Y-104140000D03*
X102235000Y-101600000D03*
D11*
X88900000Y-101600000D03*
D12*
X88900000Y-104140000D03*
X88900000Y-106680000D03*
X88900000Y-109220000D03*
M02*
