G04 #@! TF.FileFunction,Legend,Top*
%FSLAX46Y46*%
G04 Gerber Fmt 4.6, Leading zero omitted, Abs format (unit mm)*
G04 Created by KiCad (PCBNEW 4.0.7) date 02/20/18 21:57:51*
%MOMM*%
%LPD*%
G01*
G04 APERTURE LIST*
%ADD10C,0.100000*%
%ADD11C,0.300000*%
%ADD12C,0.150000*%
%ADD13C,0.120000*%
G04 APERTURE END LIST*
D10*
D11*
X15003572Y-16477143D02*
X15217858Y-16548571D01*
X15575001Y-16548571D01*
X15717858Y-16477143D01*
X15789287Y-16405714D01*
X15860715Y-16262857D01*
X15860715Y-16120000D01*
X15789287Y-15977143D01*
X15717858Y-15905714D01*
X15575001Y-15834286D01*
X15289287Y-15762857D01*
X15146429Y-15691429D01*
X15075001Y-15620000D01*
X15003572Y-15477143D01*
X15003572Y-15334286D01*
X15075001Y-15191429D01*
X15146429Y-15120000D01*
X15289287Y-15048571D01*
X15646429Y-15048571D01*
X15860715Y-15120000D01*
X16503572Y-16548571D02*
X16503572Y-15048571D01*
X17003572Y-16120000D01*
X17503572Y-15048571D01*
X17503572Y-16548571D01*
X18217858Y-16548571D02*
X18217858Y-15048571D01*
X18575001Y-15048571D01*
X18789286Y-15120000D01*
X18932144Y-15262857D01*
X19003572Y-15405714D01*
X19075001Y-15691429D01*
X19075001Y-15905714D01*
X19003572Y-16191429D01*
X18932144Y-16334286D01*
X18789286Y-16477143D01*
X18575001Y-16548571D01*
X18217858Y-16548571D01*
X20789286Y-16120000D02*
X21503572Y-16120000D01*
X20646429Y-16548571D02*
X21146429Y-15048571D01*
X21646429Y-16548571D01*
X22789286Y-16548571D02*
X22789286Y-15048571D01*
X22789286Y-16477143D02*
X22646429Y-16548571D01*
X22360715Y-16548571D01*
X22217857Y-16477143D01*
X22146429Y-16405714D01*
X22075000Y-16262857D01*
X22075000Y-15834286D01*
X22146429Y-15691429D01*
X22217857Y-15620000D01*
X22360715Y-15548571D01*
X22646429Y-15548571D01*
X22789286Y-15620000D01*
X24146429Y-16548571D02*
X24146429Y-15762857D01*
X24075000Y-15620000D01*
X23932143Y-15548571D01*
X23646429Y-15548571D01*
X23503572Y-15620000D01*
X24146429Y-16477143D02*
X24003572Y-16548571D01*
X23646429Y-16548571D01*
X23503572Y-16477143D01*
X23432143Y-16334286D01*
X23432143Y-16191429D01*
X23503572Y-16048571D01*
X23646429Y-15977143D01*
X24003572Y-15977143D01*
X24146429Y-15905714D01*
X24860715Y-15548571D02*
X24860715Y-17048571D01*
X24860715Y-15620000D02*
X25003572Y-15548571D01*
X25289286Y-15548571D01*
X25432143Y-15620000D01*
X25503572Y-15691429D01*
X25575001Y-15834286D01*
X25575001Y-16262857D01*
X25503572Y-16405714D01*
X25432143Y-16477143D01*
X25289286Y-16548571D01*
X25003572Y-16548571D01*
X24860715Y-16477143D01*
X26003572Y-15548571D02*
X26575001Y-15548571D01*
X26217858Y-15048571D02*
X26217858Y-16334286D01*
X26289286Y-16477143D01*
X26432144Y-16548571D01*
X26575001Y-16548571D01*
X27646429Y-16477143D02*
X27503572Y-16548571D01*
X27217858Y-16548571D01*
X27075001Y-16477143D01*
X27003572Y-16334286D01*
X27003572Y-15762857D01*
X27075001Y-15620000D01*
X27217858Y-15548571D01*
X27503572Y-15548571D01*
X27646429Y-15620000D01*
X27717858Y-15762857D01*
X27717858Y-15905714D01*
X27003572Y-16048571D01*
X28360715Y-16548571D02*
X28360715Y-15548571D01*
X28360715Y-15834286D02*
X28432143Y-15691429D01*
X28503572Y-15620000D01*
X28646429Y-15548571D01*
X28789286Y-15548571D01*
X30932143Y-15762857D02*
X31146429Y-15834286D01*
X31217857Y-15905714D01*
X31289286Y-16048571D01*
X31289286Y-16262857D01*
X31217857Y-16405714D01*
X31146429Y-16477143D01*
X31003571Y-16548571D01*
X30432143Y-16548571D01*
X30432143Y-15048571D01*
X30932143Y-15048571D01*
X31075000Y-15120000D01*
X31146429Y-15191429D01*
X31217857Y-15334286D01*
X31217857Y-15477143D01*
X31146429Y-15620000D01*
X31075000Y-15691429D01*
X30932143Y-15762857D01*
X30432143Y-15762857D01*
X32146429Y-16548571D02*
X32003571Y-16477143D01*
X31932143Y-16405714D01*
X31860714Y-16262857D01*
X31860714Y-15834286D01*
X31932143Y-15691429D01*
X32003571Y-15620000D01*
X32146429Y-15548571D01*
X32360714Y-15548571D01*
X32503571Y-15620000D01*
X32575000Y-15691429D01*
X32646429Y-15834286D01*
X32646429Y-16262857D01*
X32575000Y-16405714D01*
X32503571Y-16477143D01*
X32360714Y-16548571D01*
X32146429Y-16548571D01*
X33932143Y-16548571D02*
X33932143Y-15762857D01*
X33860714Y-15620000D01*
X33717857Y-15548571D01*
X33432143Y-15548571D01*
X33289286Y-15620000D01*
X33932143Y-16477143D02*
X33789286Y-16548571D01*
X33432143Y-16548571D01*
X33289286Y-16477143D01*
X33217857Y-16334286D01*
X33217857Y-16191429D01*
X33289286Y-16048571D01*
X33432143Y-15977143D01*
X33789286Y-15977143D01*
X33932143Y-15905714D01*
X34646429Y-16548571D02*
X34646429Y-15548571D01*
X34646429Y-15834286D02*
X34717857Y-15691429D01*
X34789286Y-15620000D01*
X34932143Y-15548571D01*
X35075000Y-15548571D01*
X36217857Y-16548571D02*
X36217857Y-15048571D01*
X36217857Y-16477143D02*
X36075000Y-16548571D01*
X35789286Y-16548571D01*
X35646428Y-16477143D01*
X35575000Y-16405714D01*
X35503571Y-16262857D01*
X35503571Y-15834286D01*
X35575000Y-15691429D01*
X35646428Y-15620000D01*
X35789286Y-15548571D01*
X36075000Y-15548571D01*
X36217857Y-15620000D01*
X37932143Y-15548571D02*
X38289286Y-16548571D01*
X38646428Y-15548571D01*
X40003571Y-16548571D02*
X39146428Y-16548571D01*
X39575000Y-16548571D02*
X39575000Y-15048571D01*
X39432143Y-15262857D01*
X39289285Y-15405714D01*
X39146428Y-15477143D01*
X40646428Y-16405714D02*
X40717856Y-16477143D01*
X40646428Y-16548571D01*
X40574999Y-16477143D01*
X40646428Y-16405714D01*
X40646428Y-16548571D01*
X41646428Y-15048571D02*
X41789285Y-15048571D01*
X41932142Y-15120000D01*
X42003571Y-15191429D01*
X42075000Y-15334286D01*
X42146428Y-15620000D01*
X42146428Y-15977143D01*
X42075000Y-16262857D01*
X42003571Y-16405714D01*
X41932142Y-16477143D01*
X41789285Y-16548571D01*
X41646428Y-16548571D01*
X41503571Y-16477143D01*
X41432142Y-16405714D01*
X41360714Y-16262857D01*
X41289285Y-15977143D01*
X41289285Y-15620000D01*
X41360714Y-15334286D01*
X41432142Y-15191429D01*
X41503571Y-15120000D01*
X41646428Y-15048571D01*
X14646430Y-17598571D02*
X14646430Y-18670000D01*
X14575002Y-18884286D01*
X14432145Y-19027143D01*
X14217859Y-19098571D01*
X14075002Y-19098571D01*
X16003573Y-19098571D02*
X16003573Y-18312857D01*
X15932144Y-18170000D01*
X15789287Y-18098571D01*
X15503573Y-18098571D01*
X15360716Y-18170000D01*
X16003573Y-19027143D02*
X15860716Y-19098571D01*
X15503573Y-19098571D01*
X15360716Y-19027143D01*
X15289287Y-18884286D01*
X15289287Y-18741429D01*
X15360716Y-18598571D01*
X15503573Y-18527143D01*
X15860716Y-18527143D01*
X16003573Y-18455714D01*
X16646430Y-19027143D02*
X16789287Y-19098571D01*
X17075002Y-19098571D01*
X17217859Y-19027143D01*
X17289287Y-18884286D01*
X17289287Y-18812857D01*
X17217859Y-18670000D01*
X17075002Y-18598571D01*
X16860716Y-18598571D01*
X16717859Y-18527143D01*
X16646430Y-18384286D01*
X16646430Y-18312857D01*
X16717859Y-18170000D01*
X16860716Y-18098571D01*
X17075002Y-18098571D01*
X17217859Y-18170000D01*
X18146431Y-19098571D02*
X18003573Y-19027143D01*
X17932145Y-18955714D01*
X17860716Y-18812857D01*
X17860716Y-18384286D01*
X17932145Y-18241429D01*
X18003573Y-18170000D01*
X18146431Y-18098571D01*
X18360716Y-18098571D01*
X18503573Y-18170000D01*
X18575002Y-18241429D01*
X18646431Y-18384286D01*
X18646431Y-18812857D01*
X18575002Y-18955714D01*
X18503573Y-19027143D01*
X18360716Y-19098571D01*
X18146431Y-19098571D01*
X19289288Y-18098571D02*
X19289288Y-19098571D01*
X19289288Y-18241429D02*
X19360716Y-18170000D01*
X19503574Y-18098571D01*
X19717859Y-18098571D01*
X19860716Y-18170000D01*
X19932145Y-18312857D01*
X19932145Y-19098571D01*
X21789288Y-19098571D02*
X21789288Y-17598571D01*
X22146431Y-17598571D01*
X22360716Y-17670000D01*
X22503574Y-17812857D01*
X22575002Y-17955714D01*
X22646431Y-18241429D01*
X22646431Y-18455714D01*
X22575002Y-18741429D01*
X22503574Y-18884286D01*
X22360716Y-19027143D01*
X22146431Y-19098571D01*
X21789288Y-19098571D01*
X23503574Y-19098571D02*
X23360716Y-19027143D01*
X23289288Y-18955714D01*
X23217859Y-18812857D01*
X23217859Y-18384286D01*
X23289288Y-18241429D01*
X23360716Y-18170000D01*
X23503574Y-18098571D01*
X23717859Y-18098571D01*
X23860716Y-18170000D01*
X23932145Y-18241429D01*
X24003574Y-18384286D01*
X24003574Y-18812857D01*
X23932145Y-18955714D01*
X23860716Y-19027143D01*
X23717859Y-19098571D01*
X23503574Y-19098571D01*
X24503574Y-18098571D02*
X24789288Y-19098571D01*
X25075002Y-18384286D01*
X25360717Y-19098571D01*
X25646431Y-18098571D01*
X26217860Y-18098571D02*
X26217860Y-19098571D01*
X26217860Y-18241429D02*
X26289288Y-18170000D01*
X26432146Y-18098571D01*
X26646431Y-18098571D01*
X26789288Y-18170000D01*
X26860717Y-18312857D01*
X26860717Y-19098571D01*
X28146431Y-19027143D02*
X28003574Y-19098571D01*
X27717860Y-19098571D01*
X27575003Y-19027143D01*
X27503574Y-18884286D01*
X27503574Y-18312857D01*
X27575003Y-18170000D01*
X27717860Y-18098571D01*
X28003574Y-18098571D01*
X28146431Y-18170000D01*
X28217860Y-18312857D01*
X28217860Y-18455714D01*
X27503574Y-18598571D01*
X28717860Y-18098571D02*
X29075003Y-19098571D01*
X29432145Y-18098571D02*
X29075003Y-19098571D01*
X28932145Y-19455714D01*
X28860717Y-19527143D01*
X28717860Y-19598571D01*
X31075002Y-17741429D02*
X31146431Y-17670000D01*
X31289288Y-17598571D01*
X31646431Y-17598571D01*
X31789288Y-17670000D01*
X31860717Y-17741429D01*
X31932145Y-17884286D01*
X31932145Y-18027143D01*
X31860717Y-18241429D01*
X31003574Y-19098571D01*
X31932145Y-19098571D01*
X32860716Y-17598571D02*
X33003573Y-17598571D01*
X33146430Y-17670000D01*
X33217859Y-17741429D01*
X33289288Y-17884286D01*
X33360716Y-18170000D01*
X33360716Y-18527143D01*
X33289288Y-18812857D01*
X33217859Y-18955714D01*
X33146430Y-19027143D01*
X33003573Y-19098571D01*
X32860716Y-19098571D01*
X32717859Y-19027143D01*
X32646430Y-18955714D01*
X32575002Y-18812857D01*
X32503573Y-18527143D01*
X32503573Y-18170000D01*
X32575002Y-17884286D01*
X32646430Y-17741429D01*
X32717859Y-17670000D01*
X32860716Y-17598571D01*
X34503573Y-18312857D02*
X34003573Y-18312857D01*
X34003573Y-19098571D02*
X34003573Y-17598571D01*
X34717859Y-17598571D01*
X35860715Y-19027143D02*
X35717858Y-19098571D01*
X35432144Y-19098571D01*
X35289287Y-19027143D01*
X35217858Y-18884286D01*
X35217858Y-18312857D01*
X35289287Y-18170000D01*
X35432144Y-18098571D01*
X35717858Y-18098571D01*
X35860715Y-18170000D01*
X35932144Y-18312857D01*
X35932144Y-18455714D01*
X35217858Y-18598571D01*
X36575001Y-19098571D02*
X36575001Y-17598571D01*
X36575001Y-18170000D02*
X36717858Y-18098571D01*
X37003572Y-18098571D01*
X37146429Y-18170000D01*
X37217858Y-18241429D01*
X37289287Y-18384286D01*
X37289287Y-18812857D01*
X37217858Y-18955714D01*
X37146429Y-19027143D01*
X37003572Y-19098571D01*
X36717858Y-19098571D01*
X36575001Y-19027143D01*
X37860715Y-17741429D02*
X37932144Y-17670000D01*
X38075001Y-17598571D01*
X38432144Y-17598571D01*
X38575001Y-17670000D01*
X38646430Y-17741429D01*
X38717858Y-17884286D01*
X38717858Y-18027143D01*
X38646430Y-18241429D01*
X37789287Y-19098571D01*
X38717858Y-19098571D01*
X39646429Y-17598571D02*
X39789286Y-17598571D01*
X39932143Y-17670000D01*
X40003572Y-17741429D01*
X40075001Y-17884286D01*
X40146429Y-18170000D01*
X40146429Y-18527143D01*
X40075001Y-18812857D01*
X40003572Y-18955714D01*
X39932143Y-19027143D01*
X39789286Y-19098571D01*
X39646429Y-19098571D01*
X39503572Y-19027143D01*
X39432143Y-18955714D01*
X39360715Y-18812857D01*
X39289286Y-18527143D01*
X39289286Y-18170000D01*
X39360715Y-17884286D01*
X39432143Y-17741429D01*
X39503572Y-17670000D01*
X39646429Y-17598571D01*
X41575000Y-19098571D02*
X40717857Y-19098571D01*
X41146429Y-19098571D02*
X41146429Y-17598571D01*
X41003572Y-17812857D01*
X40860714Y-17955714D01*
X40717857Y-18027143D01*
X42432143Y-18241429D02*
X42289285Y-18170000D01*
X42217857Y-18098571D01*
X42146428Y-17955714D01*
X42146428Y-17884286D01*
X42217857Y-17741429D01*
X42289285Y-17670000D01*
X42432143Y-17598571D01*
X42717857Y-17598571D01*
X42860714Y-17670000D01*
X42932143Y-17741429D01*
X43003571Y-17884286D01*
X43003571Y-17955714D01*
X42932143Y-18098571D01*
X42860714Y-18170000D01*
X42717857Y-18241429D01*
X42432143Y-18241429D01*
X42289285Y-18312857D01*
X42217857Y-18384286D01*
X42146428Y-18527143D01*
X42146428Y-18812857D01*
X42217857Y-18955714D01*
X42289285Y-19027143D01*
X42432143Y-19098571D01*
X42717857Y-19098571D01*
X42860714Y-19027143D01*
X42932143Y-18955714D01*
X43003571Y-18812857D01*
X43003571Y-18527143D01*
X42932143Y-18384286D01*
X42860714Y-18312857D01*
X42717857Y-18241429D01*
X67227144Y-74822857D02*
X67727144Y-74822857D01*
X67941430Y-75608571D02*
X67227144Y-75608571D01*
X67227144Y-74108571D01*
X67941430Y-74108571D01*
X68512858Y-75537143D02*
X68727144Y-75608571D01*
X69084287Y-75608571D01*
X69227144Y-75537143D01*
X69298573Y-75465714D01*
X69370001Y-75322857D01*
X69370001Y-75180000D01*
X69298573Y-75037143D01*
X69227144Y-74965714D01*
X69084287Y-74894286D01*
X68798573Y-74822857D01*
X68655715Y-74751429D01*
X68584287Y-74680000D01*
X68512858Y-74537143D01*
X68512858Y-74394286D01*
X68584287Y-74251429D01*
X68655715Y-74180000D01*
X68798573Y-74108571D01*
X69155715Y-74108571D01*
X69370001Y-74180000D01*
X70012858Y-75608571D02*
X70012858Y-74108571D01*
X70584286Y-74108571D01*
X70727144Y-74180000D01*
X70798572Y-74251429D01*
X70870001Y-74394286D01*
X70870001Y-74608571D01*
X70798572Y-74751429D01*
X70727144Y-74822857D01*
X70584286Y-74894286D01*
X70012858Y-74894286D01*
X72298572Y-75608571D02*
X71441429Y-75608571D01*
X71870001Y-75608571D02*
X71870001Y-74108571D01*
X71727144Y-74322857D01*
X71584286Y-74465714D01*
X71441429Y-74537143D01*
X72870000Y-74251429D02*
X72941429Y-74180000D01*
X73084286Y-74108571D01*
X73441429Y-74108571D01*
X73584286Y-74180000D01*
X73655715Y-74251429D01*
X73727143Y-74394286D01*
X73727143Y-74537143D01*
X73655715Y-74751429D01*
X72798572Y-75608571D01*
X73727143Y-75608571D01*
X74370000Y-74822857D02*
X74870000Y-74822857D01*
X75084286Y-75608571D02*
X74370000Y-75608571D01*
X74370000Y-74108571D01*
X75084286Y-74108571D01*
X29762144Y-74822857D02*
X30262144Y-74822857D01*
X30476430Y-75608571D02*
X29762144Y-75608571D01*
X29762144Y-74108571D01*
X30476430Y-74108571D01*
X31047858Y-75537143D02*
X31262144Y-75608571D01*
X31619287Y-75608571D01*
X31762144Y-75537143D01*
X31833573Y-75465714D01*
X31905001Y-75322857D01*
X31905001Y-75180000D01*
X31833573Y-75037143D01*
X31762144Y-74965714D01*
X31619287Y-74894286D01*
X31333573Y-74822857D01*
X31190715Y-74751429D01*
X31119287Y-74680000D01*
X31047858Y-74537143D01*
X31047858Y-74394286D01*
X31119287Y-74251429D01*
X31190715Y-74180000D01*
X31333573Y-74108571D01*
X31690715Y-74108571D01*
X31905001Y-74180000D01*
X32547858Y-75608571D02*
X32547858Y-74108571D01*
X33119286Y-74108571D01*
X33262144Y-74180000D01*
X33333572Y-74251429D01*
X33405001Y-74394286D01*
X33405001Y-74608571D01*
X33333572Y-74751429D01*
X33262144Y-74822857D01*
X33119286Y-74894286D01*
X32547858Y-74894286D01*
X34833572Y-75608571D02*
X33976429Y-75608571D01*
X34405001Y-75608571D02*
X34405001Y-74108571D01*
X34262144Y-74322857D01*
X34119286Y-74465714D01*
X33976429Y-74537143D01*
X35405000Y-74251429D02*
X35476429Y-74180000D01*
X35619286Y-74108571D01*
X35976429Y-74108571D01*
X36119286Y-74180000D01*
X36190715Y-74251429D01*
X36262143Y-74394286D01*
X36262143Y-74537143D01*
X36190715Y-74751429D01*
X35333572Y-75608571D01*
X36262143Y-75608571D01*
X36905000Y-74822857D02*
X37405000Y-74822857D01*
X37619286Y-75608571D02*
X36905000Y-75608571D01*
X36905000Y-74108571D01*
X37619286Y-74108571D01*
X90964286Y-112367143D02*
X91178572Y-112438571D01*
X91535715Y-112438571D01*
X91678572Y-112367143D01*
X91750001Y-112295714D01*
X91821429Y-112152857D01*
X91821429Y-112010000D01*
X91750001Y-111867143D01*
X91678572Y-111795714D01*
X91535715Y-111724286D01*
X91250001Y-111652857D01*
X91107143Y-111581429D01*
X91035715Y-111510000D01*
X90964286Y-111367143D01*
X90964286Y-111224286D01*
X91035715Y-111081429D01*
X91107143Y-111010000D01*
X91250001Y-110938571D01*
X91607143Y-110938571D01*
X91821429Y-111010000D01*
X92750000Y-110938571D02*
X93035714Y-110938571D01*
X93178572Y-111010000D01*
X93321429Y-111152857D01*
X93392857Y-111438571D01*
X93392857Y-111938571D01*
X93321429Y-112224286D01*
X93178572Y-112367143D01*
X93035714Y-112438571D01*
X92750000Y-112438571D01*
X92607143Y-112367143D01*
X92464286Y-112224286D01*
X92392857Y-111938571D01*
X92392857Y-111438571D01*
X92464286Y-111152857D01*
X92607143Y-111010000D01*
X92750000Y-110938571D01*
X93964286Y-111081429D02*
X94035715Y-111010000D01*
X94178572Y-110938571D01*
X94535715Y-110938571D01*
X94678572Y-111010000D01*
X94750001Y-111081429D01*
X94821429Y-111224286D01*
X94821429Y-111367143D01*
X94750001Y-111581429D01*
X93892858Y-112438571D01*
X94821429Y-112438571D01*
X95321429Y-110938571D02*
X96250000Y-110938571D01*
X95750000Y-111510000D01*
X95964286Y-111510000D01*
X96107143Y-111581429D01*
X96178572Y-111652857D01*
X96250000Y-111795714D01*
X96250000Y-112152857D01*
X96178572Y-112295714D01*
X96107143Y-112367143D01*
X95964286Y-112438571D01*
X95535714Y-112438571D01*
X95392857Y-112367143D01*
X95321429Y-112295714D01*
X96892857Y-111867143D02*
X98035714Y-111867143D01*
X98964286Y-111581429D02*
X98821428Y-111510000D01*
X98750000Y-111438571D01*
X98678571Y-111295714D01*
X98678571Y-111224286D01*
X98750000Y-111081429D01*
X98821428Y-111010000D01*
X98964286Y-110938571D01*
X99250000Y-110938571D01*
X99392857Y-111010000D01*
X99464286Y-111081429D01*
X99535714Y-111224286D01*
X99535714Y-111295714D01*
X99464286Y-111438571D01*
X99392857Y-111510000D01*
X99250000Y-111581429D01*
X98964286Y-111581429D01*
X98821428Y-111652857D01*
X98750000Y-111724286D01*
X98678571Y-111867143D01*
X98678571Y-112152857D01*
X98750000Y-112295714D01*
X98821428Y-112367143D01*
X98964286Y-112438571D01*
X99250000Y-112438571D01*
X99392857Y-112367143D01*
X99464286Y-112295714D01*
X99535714Y-112152857D01*
X99535714Y-111867143D01*
X99464286Y-111724286D01*
X99392857Y-111652857D01*
X99250000Y-111581429D01*
X69374286Y-112367143D02*
X69588572Y-112438571D01*
X69945715Y-112438571D01*
X70088572Y-112367143D01*
X70160001Y-112295714D01*
X70231429Y-112152857D01*
X70231429Y-112010000D01*
X70160001Y-111867143D01*
X70088572Y-111795714D01*
X69945715Y-111724286D01*
X69660001Y-111652857D01*
X69517143Y-111581429D01*
X69445715Y-111510000D01*
X69374286Y-111367143D01*
X69374286Y-111224286D01*
X69445715Y-111081429D01*
X69517143Y-111010000D01*
X69660001Y-110938571D01*
X70017143Y-110938571D01*
X70231429Y-111010000D01*
X71160000Y-110938571D02*
X71445714Y-110938571D01*
X71588572Y-111010000D01*
X71731429Y-111152857D01*
X71802857Y-111438571D01*
X71802857Y-111938571D01*
X71731429Y-112224286D01*
X71588572Y-112367143D01*
X71445714Y-112438571D01*
X71160000Y-112438571D01*
X71017143Y-112367143D01*
X70874286Y-112224286D01*
X70802857Y-111938571D01*
X70802857Y-111438571D01*
X70874286Y-111152857D01*
X71017143Y-111010000D01*
X71160000Y-110938571D01*
X72374286Y-111081429D02*
X72445715Y-111010000D01*
X72588572Y-110938571D01*
X72945715Y-110938571D01*
X73088572Y-111010000D01*
X73160001Y-111081429D01*
X73231429Y-111224286D01*
X73231429Y-111367143D01*
X73160001Y-111581429D01*
X72302858Y-112438571D01*
X73231429Y-112438571D01*
X73731429Y-110938571D02*
X74660000Y-110938571D01*
X74160000Y-111510000D01*
X74374286Y-111510000D01*
X74517143Y-111581429D01*
X74588572Y-111652857D01*
X74660000Y-111795714D01*
X74660000Y-112152857D01*
X74588572Y-112295714D01*
X74517143Y-112367143D01*
X74374286Y-112438571D01*
X73945714Y-112438571D01*
X73802857Y-112367143D01*
X73731429Y-112295714D01*
X75302857Y-111867143D02*
X76445714Y-111867143D01*
X77374286Y-111581429D02*
X77231428Y-111510000D01*
X77160000Y-111438571D01*
X77088571Y-111295714D01*
X77088571Y-111224286D01*
X77160000Y-111081429D01*
X77231428Y-111010000D01*
X77374286Y-110938571D01*
X77660000Y-110938571D01*
X77802857Y-111010000D01*
X77874286Y-111081429D01*
X77945714Y-111224286D01*
X77945714Y-111295714D01*
X77874286Y-111438571D01*
X77802857Y-111510000D01*
X77660000Y-111581429D01*
X77374286Y-111581429D01*
X77231428Y-111652857D01*
X77160000Y-111724286D01*
X77088571Y-111867143D01*
X77088571Y-112152857D01*
X77160000Y-112295714D01*
X77231428Y-112367143D01*
X77374286Y-112438571D01*
X77660000Y-112438571D01*
X77802857Y-112367143D01*
X77874286Y-112295714D01*
X77945714Y-112152857D01*
X77945714Y-111867143D01*
X77874286Y-111724286D01*
X77802857Y-111652857D01*
X77660000Y-111581429D01*
X96742858Y-75537143D02*
X96957144Y-75608571D01*
X97314287Y-75608571D01*
X97457144Y-75537143D01*
X97528573Y-75465714D01*
X97600001Y-75322857D01*
X97600001Y-75180000D01*
X97528573Y-75037143D01*
X97457144Y-74965714D01*
X97314287Y-74894286D01*
X97028573Y-74822857D01*
X96885715Y-74751429D01*
X96814287Y-74680000D01*
X96742858Y-74537143D01*
X96742858Y-74394286D01*
X96814287Y-74251429D01*
X96885715Y-74180000D01*
X97028573Y-74108571D01*
X97385715Y-74108571D01*
X97600001Y-74180000D01*
X98528572Y-74108571D02*
X98814286Y-74108571D01*
X98957144Y-74180000D01*
X99100001Y-74322857D01*
X99171429Y-74608571D01*
X99171429Y-75108571D01*
X99100001Y-75394286D01*
X98957144Y-75537143D01*
X98814286Y-75608571D01*
X98528572Y-75608571D01*
X98385715Y-75537143D01*
X98242858Y-75394286D01*
X98171429Y-75108571D01*
X98171429Y-74608571D01*
X98242858Y-74322857D01*
X98385715Y-74180000D01*
X98528572Y-74108571D01*
X99600001Y-74108571D02*
X100457144Y-74108571D01*
X100028573Y-75608571D02*
X100028573Y-74108571D01*
X100885715Y-74251429D02*
X100957144Y-74180000D01*
X101100001Y-74108571D01*
X101457144Y-74108571D01*
X101600001Y-74180000D01*
X101671430Y-74251429D01*
X101742858Y-74394286D01*
X101742858Y-74537143D01*
X101671430Y-74751429D01*
X100814287Y-75608571D01*
X101742858Y-75608571D01*
X102242858Y-74108571D02*
X103171429Y-74108571D01*
X102671429Y-74680000D01*
X102885715Y-74680000D01*
X103028572Y-74751429D01*
X103100001Y-74822857D01*
X103171429Y-74965714D01*
X103171429Y-75322857D01*
X103100001Y-75465714D01*
X103028572Y-75537143D01*
X102885715Y-75608571D01*
X102457143Y-75608571D01*
X102314286Y-75537143D01*
X102242858Y-75465714D01*
X103814286Y-75037143D02*
X104957143Y-75037143D01*
X106314286Y-74108571D02*
X106028572Y-74108571D01*
X105885715Y-74180000D01*
X105814286Y-74251429D01*
X105671429Y-74465714D01*
X105600000Y-74751429D01*
X105600000Y-75322857D01*
X105671429Y-75465714D01*
X105742857Y-75537143D01*
X105885715Y-75608571D01*
X106171429Y-75608571D01*
X106314286Y-75537143D01*
X106385715Y-75465714D01*
X106457143Y-75322857D01*
X106457143Y-74965714D01*
X106385715Y-74822857D01*
X106314286Y-74751429D01*
X106171429Y-74680000D01*
X105885715Y-74680000D01*
X105742857Y-74751429D01*
X105671429Y-74822857D01*
X105600000Y-74965714D01*
X96742858Y-90142143D02*
X96957144Y-90213571D01*
X97314287Y-90213571D01*
X97457144Y-90142143D01*
X97528573Y-90070714D01*
X97600001Y-89927857D01*
X97600001Y-89785000D01*
X97528573Y-89642143D01*
X97457144Y-89570714D01*
X97314287Y-89499286D01*
X97028573Y-89427857D01*
X96885715Y-89356429D01*
X96814287Y-89285000D01*
X96742858Y-89142143D01*
X96742858Y-88999286D01*
X96814287Y-88856429D01*
X96885715Y-88785000D01*
X97028573Y-88713571D01*
X97385715Y-88713571D01*
X97600001Y-88785000D01*
X98528572Y-88713571D02*
X98814286Y-88713571D01*
X98957144Y-88785000D01*
X99100001Y-88927857D01*
X99171429Y-89213571D01*
X99171429Y-89713571D01*
X99100001Y-89999286D01*
X98957144Y-90142143D01*
X98814286Y-90213571D01*
X98528572Y-90213571D01*
X98385715Y-90142143D01*
X98242858Y-89999286D01*
X98171429Y-89713571D01*
X98171429Y-89213571D01*
X98242858Y-88927857D01*
X98385715Y-88785000D01*
X98528572Y-88713571D01*
X99600001Y-88713571D02*
X100457144Y-88713571D01*
X100028573Y-90213571D02*
X100028573Y-88713571D01*
X100885715Y-88856429D02*
X100957144Y-88785000D01*
X101100001Y-88713571D01*
X101457144Y-88713571D01*
X101600001Y-88785000D01*
X101671430Y-88856429D01*
X101742858Y-88999286D01*
X101742858Y-89142143D01*
X101671430Y-89356429D01*
X100814287Y-90213571D01*
X101742858Y-90213571D01*
X102242858Y-88713571D02*
X103171429Y-88713571D01*
X102671429Y-89285000D01*
X102885715Y-89285000D01*
X103028572Y-89356429D01*
X103100001Y-89427857D01*
X103171429Y-89570714D01*
X103171429Y-89927857D01*
X103100001Y-90070714D01*
X103028572Y-90142143D01*
X102885715Y-90213571D01*
X102457143Y-90213571D01*
X102314286Y-90142143D01*
X102242858Y-90070714D01*
X103814286Y-89642143D02*
X104957143Y-89642143D01*
X106314286Y-88713571D02*
X106028572Y-88713571D01*
X105885715Y-88785000D01*
X105814286Y-88856429D01*
X105671429Y-89070714D01*
X105600000Y-89356429D01*
X105600000Y-89927857D01*
X105671429Y-90070714D01*
X105742857Y-90142143D01*
X105885715Y-90213571D01*
X106171429Y-90213571D01*
X106314286Y-90142143D01*
X106385715Y-90070714D01*
X106457143Y-89927857D01*
X106457143Y-89570714D01*
X106385715Y-89427857D01*
X106314286Y-89356429D01*
X106171429Y-89285000D01*
X105885715Y-89285000D01*
X105742857Y-89356429D01*
X105671429Y-89427857D01*
X105600000Y-89570714D01*
X47847858Y-112367143D02*
X48062144Y-112438571D01*
X48419287Y-112438571D01*
X48562144Y-112367143D01*
X48633573Y-112295714D01*
X48705001Y-112152857D01*
X48705001Y-112010000D01*
X48633573Y-111867143D01*
X48562144Y-111795714D01*
X48419287Y-111724286D01*
X48133573Y-111652857D01*
X47990715Y-111581429D01*
X47919287Y-111510000D01*
X47847858Y-111367143D01*
X47847858Y-111224286D01*
X47919287Y-111081429D01*
X47990715Y-111010000D01*
X48133573Y-110938571D01*
X48490715Y-110938571D01*
X48705001Y-111010000D01*
X49633572Y-110938571D02*
X49919286Y-110938571D01*
X50062144Y-111010000D01*
X50205001Y-111152857D01*
X50276429Y-111438571D01*
X50276429Y-111938571D01*
X50205001Y-112224286D01*
X50062144Y-112367143D01*
X49919286Y-112438571D01*
X49633572Y-112438571D01*
X49490715Y-112367143D01*
X49347858Y-112224286D01*
X49276429Y-111938571D01*
X49276429Y-111438571D01*
X49347858Y-111152857D01*
X49490715Y-111010000D01*
X49633572Y-110938571D01*
X50705001Y-110938571D02*
X51562144Y-110938571D01*
X51133573Y-112438571D02*
X51133573Y-110938571D01*
X51990715Y-111081429D02*
X52062144Y-111010000D01*
X52205001Y-110938571D01*
X52562144Y-110938571D01*
X52705001Y-111010000D01*
X52776430Y-111081429D01*
X52847858Y-111224286D01*
X52847858Y-111367143D01*
X52776430Y-111581429D01*
X51919287Y-112438571D01*
X52847858Y-112438571D01*
X53347858Y-110938571D02*
X54276429Y-110938571D01*
X53776429Y-111510000D01*
X53990715Y-111510000D01*
X54133572Y-111581429D01*
X54205001Y-111652857D01*
X54276429Y-111795714D01*
X54276429Y-112152857D01*
X54205001Y-112295714D01*
X54133572Y-112367143D01*
X53990715Y-112438571D01*
X53562143Y-112438571D01*
X53419286Y-112367143D01*
X53347858Y-112295714D01*
X54919286Y-111867143D02*
X56062143Y-111867143D01*
X57419286Y-110938571D02*
X57133572Y-110938571D01*
X56990715Y-111010000D01*
X56919286Y-111081429D01*
X56776429Y-111295714D01*
X56705000Y-111581429D01*
X56705000Y-112152857D01*
X56776429Y-112295714D01*
X56847857Y-112367143D01*
X56990715Y-112438571D01*
X57276429Y-112438571D01*
X57419286Y-112367143D01*
X57490715Y-112295714D01*
X57562143Y-112152857D01*
X57562143Y-111795714D01*
X57490715Y-111652857D01*
X57419286Y-111581429D01*
X57276429Y-111510000D01*
X56990715Y-111510000D01*
X56847857Y-111581429D01*
X56776429Y-111652857D01*
X56705000Y-111795714D01*
X26892858Y-112367143D02*
X27107144Y-112438571D01*
X27464287Y-112438571D01*
X27607144Y-112367143D01*
X27678573Y-112295714D01*
X27750001Y-112152857D01*
X27750001Y-112010000D01*
X27678573Y-111867143D01*
X27607144Y-111795714D01*
X27464287Y-111724286D01*
X27178573Y-111652857D01*
X27035715Y-111581429D01*
X26964287Y-111510000D01*
X26892858Y-111367143D01*
X26892858Y-111224286D01*
X26964287Y-111081429D01*
X27035715Y-111010000D01*
X27178573Y-110938571D01*
X27535715Y-110938571D01*
X27750001Y-111010000D01*
X28678572Y-110938571D02*
X28964286Y-110938571D01*
X29107144Y-111010000D01*
X29250001Y-111152857D01*
X29321429Y-111438571D01*
X29321429Y-111938571D01*
X29250001Y-112224286D01*
X29107144Y-112367143D01*
X28964286Y-112438571D01*
X28678572Y-112438571D01*
X28535715Y-112367143D01*
X28392858Y-112224286D01*
X28321429Y-111938571D01*
X28321429Y-111438571D01*
X28392858Y-111152857D01*
X28535715Y-111010000D01*
X28678572Y-110938571D01*
X29750001Y-110938571D02*
X30607144Y-110938571D01*
X30178573Y-112438571D02*
X30178573Y-110938571D01*
X31035715Y-111081429D02*
X31107144Y-111010000D01*
X31250001Y-110938571D01*
X31607144Y-110938571D01*
X31750001Y-111010000D01*
X31821430Y-111081429D01*
X31892858Y-111224286D01*
X31892858Y-111367143D01*
X31821430Y-111581429D01*
X30964287Y-112438571D01*
X31892858Y-112438571D01*
X32392858Y-110938571D02*
X33321429Y-110938571D01*
X32821429Y-111510000D01*
X33035715Y-111510000D01*
X33178572Y-111581429D01*
X33250001Y-111652857D01*
X33321429Y-111795714D01*
X33321429Y-112152857D01*
X33250001Y-112295714D01*
X33178572Y-112367143D01*
X33035715Y-112438571D01*
X32607143Y-112438571D01*
X32464286Y-112367143D01*
X32392858Y-112295714D01*
X33964286Y-111867143D02*
X35107143Y-111867143D01*
X36464286Y-110938571D02*
X36178572Y-110938571D01*
X36035715Y-111010000D01*
X35964286Y-111081429D01*
X35821429Y-111295714D01*
X35750000Y-111581429D01*
X35750000Y-112152857D01*
X35821429Y-112295714D01*
X35892857Y-112367143D01*
X36035715Y-112438571D01*
X36321429Y-112438571D01*
X36464286Y-112367143D01*
X36535715Y-112295714D01*
X36607143Y-112152857D01*
X36607143Y-111795714D01*
X36535715Y-111652857D01*
X36464286Y-111581429D01*
X36321429Y-111510000D01*
X36035715Y-111510000D01*
X35892857Y-111581429D01*
X35821429Y-111652857D01*
X35750000Y-111795714D01*
X82296429Y-66083571D02*
X82296429Y-64583571D01*
X82867857Y-64583571D01*
X83010715Y-64655000D01*
X83082143Y-64726429D01*
X83153572Y-64869286D01*
X83153572Y-65083571D01*
X83082143Y-65226429D01*
X83010715Y-65297857D01*
X82867857Y-65369286D01*
X82296429Y-65369286D01*
X83796429Y-66083571D02*
X83796429Y-65083571D01*
X83796429Y-64583571D02*
X83725000Y-64655000D01*
X83796429Y-64726429D01*
X83867857Y-64655000D01*
X83796429Y-64583571D01*
X83796429Y-64726429D01*
X84510715Y-65083571D02*
X84510715Y-66083571D01*
X84510715Y-65226429D02*
X84582143Y-65155000D01*
X84725001Y-65083571D01*
X84939286Y-65083571D01*
X85082143Y-65155000D01*
X85153572Y-65297857D01*
X85153572Y-66083571D01*
X86939286Y-64726429D02*
X87010715Y-64655000D01*
X87153572Y-64583571D01*
X87510715Y-64583571D01*
X87653572Y-64655000D01*
X87725001Y-64726429D01*
X87796429Y-64869286D01*
X87796429Y-65012143D01*
X87725001Y-65226429D01*
X86867858Y-66083571D01*
X87796429Y-66083571D01*
X88367857Y-64726429D02*
X88439286Y-64655000D01*
X88582143Y-64583571D01*
X88939286Y-64583571D01*
X89082143Y-64655000D01*
X89153572Y-64726429D01*
X89225000Y-64869286D01*
X89225000Y-65012143D01*
X89153572Y-65226429D01*
X88296429Y-66083571D01*
X89225000Y-66083571D01*
X52530715Y-66083571D02*
X52530715Y-64583571D01*
X53102143Y-64583571D01*
X53245001Y-64655000D01*
X53316429Y-64726429D01*
X53387858Y-64869286D01*
X53387858Y-65083571D01*
X53316429Y-65226429D01*
X53245001Y-65297857D01*
X53102143Y-65369286D01*
X52530715Y-65369286D01*
X54030715Y-66083571D02*
X54030715Y-65083571D01*
X54030715Y-64583571D02*
X53959286Y-64655000D01*
X54030715Y-64726429D01*
X54102143Y-64655000D01*
X54030715Y-64583571D01*
X54030715Y-64726429D01*
X54745001Y-65083571D02*
X54745001Y-66083571D01*
X54745001Y-65226429D02*
X54816429Y-65155000D01*
X54959287Y-65083571D01*
X55173572Y-65083571D01*
X55316429Y-65155000D01*
X55387858Y-65297857D01*
X55387858Y-66083571D01*
X58030715Y-66083571D02*
X57173572Y-66083571D01*
X57602144Y-66083571D02*
X57602144Y-64583571D01*
X57459287Y-64797857D01*
X57316429Y-64940714D01*
X57173572Y-65012143D01*
X44831429Y-66083571D02*
X44831429Y-64583571D01*
X45402857Y-64583571D01*
X45545715Y-64655000D01*
X45617143Y-64726429D01*
X45688572Y-64869286D01*
X45688572Y-65083571D01*
X45617143Y-65226429D01*
X45545715Y-65297857D01*
X45402857Y-65369286D01*
X44831429Y-65369286D01*
X46331429Y-66083571D02*
X46331429Y-65083571D01*
X46331429Y-64583571D02*
X46260000Y-64655000D01*
X46331429Y-64726429D01*
X46402857Y-64655000D01*
X46331429Y-64583571D01*
X46331429Y-64726429D01*
X47045715Y-65083571D02*
X47045715Y-66083571D01*
X47045715Y-65226429D02*
X47117143Y-65155000D01*
X47260001Y-65083571D01*
X47474286Y-65083571D01*
X47617143Y-65155000D01*
X47688572Y-65297857D01*
X47688572Y-66083571D01*
X49474286Y-64726429D02*
X49545715Y-64655000D01*
X49688572Y-64583571D01*
X50045715Y-64583571D01*
X50188572Y-64655000D01*
X50260001Y-64726429D01*
X50331429Y-64869286D01*
X50331429Y-65012143D01*
X50260001Y-65226429D01*
X49402858Y-66083571D01*
X50331429Y-66083571D01*
X50902857Y-64726429D02*
X50974286Y-64655000D01*
X51117143Y-64583571D01*
X51474286Y-64583571D01*
X51617143Y-64655000D01*
X51688572Y-64726429D01*
X51760000Y-64869286D01*
X51760000Y-65012143D01*
X51688572Y-65226429D01*
X50831429Y-66083571D01*
X51760000Y-66083571D01*
X16335715Y-66083571D02*
X16335715Y-64583571D01*
X16907143Y-64583571D01*
X17050001Y-64655000D01*
X17121429Y-64726429D01*
X17192858Y-64869286D01*
X17192858Y-65083571D01*
X17121429Y-65226429D01*
X17050001Y-65297857D01*
X16907143Y-65369286D01*
X16335715Y-65369286D01*
X17835715Y-66083571D02*
X17835715Y-65083571D01*
X17835715Y-64583571D02*
X17764286Y-64655000D01*
X17835715Y-64726429D01*
X17907143Y-64655000D01*
X17835715Y-64583571D01*
X17835715Y-64726429D01*
X18550001Y-65083571D02*
X18550001Y-66083571D01*
X18550001Y-65226429D02*
X18621429Y-65155000D01*
X18764287Y-65083571D01*
X18978572Y-65083571D01*
X19121429Y-65155000D01*
X19192858Y-65297857D01*
X19192858Y-66083571D01*
X21835715Y-66083571D02*
X20978572Y-66083571D01*
X21407144Y-66083571D02*
X21407144Y-64583571D01*
X21264287Y-64797857D01*
X21121429Y-64940714D01*
X20978572Y-65012143D01*
X105366429Y-44831429D02*
X106866429Y-44831429D01*
X106866429Y-45402857D01*
X106795000Y-45545715D01*
X106723571Y-45617143D01*
X106580714Y-45688572D01*
X106366429Y-45688572D01*
X106223571Y-45617143D01*
X106152143Y-45545715D01*
X106080714Y-45402857D01*
X106080714Y-44831429D01*
X105366429Y-46331429D02*
X106366429Y-46331429D01*
X106866429Y-46331429D02*
X106795000Y-46260000D01*
X106723571Y-46331429D01*
X106795000Y-46402857D01*
X106866429Y-46331429D01*
X106723571Y-46331429D01*
X106366429Y-47045715D02*
X105366429Y-47045715D01*
X106223571Y-47045715D02*
X106295000Y-47117143D01*
X106366429Y-47260001D01*
X106366429Y-47474286D01*
X106295000Y-47617143D01*
X106152143Y-47688572D01*
X105366429Y-47688572D01*
X106723571Y-49474286D02*
X106795000Y-49545715D01*
X106866429Y-49688572D01*
X106866429Y-50045715D01*
X106795000Y-50188572D01*
X106723571Y-50260001D01*
X106580714Y-50331429D01*
X106437857Y-50331429D01*
X106223571Y-50260001D01*
X105366429Y-49402858D01*
X105366429Y-50331429D01*
X106223571Y-51188572D02*
X106295000Y-51045714D01*
X106366429Y-50974286D01*
X106509286Y-50902857D01*
X106580714Y-50902857D01*
X106723571Y-50974286D01*
X106795000Y-51045714D01*
X106866429Y-51188572D01*
X106866429Y-51474286D01*
X106795000Y-51617143D01*
X106723571Y-51688572D01*
X106580714Y-51760000D01*
X106509286Y-51760000D01*
X106366429Y-51688572D01*
X106295000Y-51617143D01*
X106223571Y-51474286D01*
X106223571Y-51188572D01*
X106152143Y-51045714D01*
X106080714Y-50974286D01*
X105937857Y-50902857D01*
X105652143Y-50902857D01*
X105509286Y-50974286D01*
X105437857Y-51045714D01*
X105366429Y-51188572D01*
X105366429Y-51474286D01*
X105437857Y-51617143D01*
X105509286Y-51688572D01*
X105652143Y-51760000D01*
X105937857Y-51760000D01*
X106080714Y-51688572D01*
X106152143Y-51617143D01*
X106223571Y-51474286D01*
X104731429Y-22050715D02*
X106231429Y-22050715D01*
X106231429Y-22622143D01*
X106160000Y-22765001D01*
X106088571Y-22836429D01*
X105945714Y-22907858D01*
X105731429Y-22907858D01*
X105588571Y-22836429D01*
X105517143Y-22765001D01*
X105445714Y-22622143D01*
X105445714Y-22050715D01*
X104731429Y-23550715D02*
X105731429Y-23550715D01*
X106231429Y-23550715D02*
X106160000Y-23479286D01*
X106088571Y-23550715D01*
X106160000Y-23622143D01*
X106231429Y-23550715D01*
X106088571Y-23550715D01*
X105731429Y-24265001D02*
X104731429Y-24265001D01*
X105588571Y-24265001D02*
X105660000Y-24336429D01*
X105731429Y-24479287D01*
X105731429Y-24693572D01*
X105660000Y-24836429D01*
X105517143Y-24907858D01*
X104731429Y-24907858D01*
X104731429Y-27550715D02*
X104731429Y-26693572D01*
X104731429Y-27122144D02*
X106231429Y-27122144D01*
X106017143Y-26979287D01*
X105874286Y-26836429D01*
X105802857Y-26693572D01*
X57106429Y-44196429D02*
X58606429Y-44196429D01*
X58606429Y-44767857D01*
X58535000Y-44910715D01*
X58463571Y-44982143D01*
X58320714Y-45053572D01*
X58106429Y-45053572D01*
X57963571Y-44982143D01*
X57892143Y-44910715D01*
X57820714Y-44767857D01*
X57820714Y-44196429D01*
X57106429Y-45696429D02*
X58106429Y-45696429D01*
X58606429Y-45696429D02*
X58535000Y-45625000D01*
X58463571Y-45696429D01*
X58535000Y-45767857D01*
X58606429Y-45696429D01*
X58463571Y-45696429D01*
X58106429Y-46410715D02*
X57106429Y-46410715D01*
X57963571Y-46410715D02*
X58035000Y-46482143D01*
X58106429Y-46625001D01*
X58106429Y-46839286D01*
X58035000Y-46982143D01*
X57892143Y-47053572D01*
X57106429Y-47053572D01*
X58463571Y-48839286D02*
X58535000Y-48910715D01*
X58606429Y-49053572D01*
X58606429Y-49410715D01*
X58535000Y-49553572D01*
X58463571Y-49625001D01*
X58320714Y-49696429D01*
X58177857Y-49696429D01*
X57963571Y-49625001D01*
X57106429Y-48767858D01*
X57106429Y-49696429D01*
X57963571Y-50553572D02*
X58035000Y-50410714D01*
X58106429Y-50339286D01*
X58249286Y-50267857D01*
X58320714Y-50267857D01*
X58463571Y-50339286D01*
X58535000Y-50410714D01*
X58606429Y-50553572D01*
X58606429Y-50839286D01*
X58535000Y-50982143D01*
X58463571Y-51053572D01*
X58320714Y-51125000D01*
X58249286Y-51125000D01*
X58106429Y-51053572D01*
X58035000Y-50982143D01*
X57963571Y-50839286D01*
X57963571Y-50553572D01*
X57892143Y-50410714D01*
X57820714Y-50339286D01*
X57677857Y-50267857D01*
X57392143Y-50267857D01*
X57249286Y-50339286D01*
X57177857Y-50410714D01*
X57106429Y-50553572D01*
X57106429Y-50839286D01*
X57177857Y-50982143D01*
X57249286Y-51053572D01*
X57392143Y-51125000D01*
X57677857Y-51125000D01*
X57820714Y-51053572D01*
X57892143Y-50982143D01*
X57963571Y-50839286D01*
X57106429Y-22050715D02*
X58606429Y-22050715D01*
X58606429Y-22622143D01*
X58535000Y-22765001D01*
X58463571Y-22836429D01*
X58320714Y-22907858D01*
X58106429Y-22907858D01*
X57963571Y-22836429D01*
X57892143Y-22765001D01*
X57820714Y-22622143D01*
X57820714Y-22050715D01*
X57106429Y-23550715D02*
X58106429Y-23550715D01*
X58606429Y-23550715D02*
X58535000Y-23479286D01*
X58463571Y-23550715D01*
X58535000Y-23622143D01*
X58606429Y-23550715D01*
X58463571Y-23550715D01*
X58106429Y-24265001D02*
X57106429Y-24265001D01*
X57963571Y-24265001D02*
X58035000Y-24336429D01*
X58106429Y-24479287D01*
X58106429Y-24693572D01*
X58035000Y-24836429D01*
X57892143Y-24907858D01*
X57106429Y-24907858D01*
X57106429Y-27550715D02*
X57106429Y-26693572D01*
X57106429Y-27122144D02*
X58606429Y-27122144D01*
X58392143Y-26979287D01*
X58249286Y-26836429D01*
X58177857Y-26693572D01*
D12*
X35950000Y-38345000D02*
X35950000Y-37720000D01*
X40250000Y-34045000D02*
X40250000Y-34670000D01*
X35950000Y-34045000D02*
X35950000Y-34670000D01*
X40250000Y-38345000D02*
X39625000Y-38345000D01*
X40250000Y-34045000D02*
X39625000Y-34045000D01*
X35950000Y-34045000D02*
X36575000Y-34045000D01*
X35950000Y-38345000D02*
X36575000Y-38345000D01*
D13*
X20260000Y-23435000D02*
X20260000Y-26095000D01*
X53340000Y-23435000D02*
X20260000Y-23435000D01*
X53340000Y-26095000D02*
X20260000Y-26095000D01*
X53340000Y-23435000D02*
X53340000Y-26095000D01*
X54610000Y-23435000D02*
X55940000Y-23435000D01*
X55940000Y-23435000D02*
X55940000Y-24765000D01*
X55940000Y-48955000D02*
X55940000Y-46295000D01*
X22860000Y-48955000D02*
X55940000Y-48955000D01*
X22860000Y-46295000D02*
X55940000Y-46295000D01*
X22860000Y-48955000D02*
X22860000Y-46295000D01*
X21590000Y-48955000D02*
X20260000Y-48955000D01*
X20260000Y-48955000D02*
X20260000Y-47625000D01*
X55940000Y-48955000D02*
X55940000Y-46295000D01*
X22860000Y-48955000D02*
X55940000Y-48955000D01*
X22860000Y-46295000D02*
X55940000Y-46295000D01*
X22860000Y-48955000D02*
X22860000Y-46295000D01*
X21590000Y-48955000D02*
X20260000Y-48955000D01*
X20260000Y-48955000D02*
X20260000Y-47625000D01*
X20260000Y-23435000D02*
X20260000Y-26095000D01*
X53340000Y-23435000D02*
X20260000Y-23435000D01*
X53340000Y-26095000D02*
X20260000Y-26095000D01*
X53340000Y-23435000D02*
X53340000Y-26095000D01*
X54610000Y-23435000D02*
X55940000Y-23435000D01*
X55940000Y-23435000D02*
X55940000Y-24765000D01*
D12*
X35950000Y-38345000D02*
X35950000Y-37720000D01*
X40250000Y-34045000D02*
X40250000Y-34670000D01*
X35950000Y-34045000D02*
X35950000Y-34670000D01*
X40250000Y-38345000D02*
X39625000Y-38345000D01*
X40250000Y-34045000D02*
X39625000Y-34045000D01*
X35950000Y-34045000D02*
X36575000Y-34045000D01*
X35950000Y-38345000D02*
X36575000Y-38345000D01*
D13*
X93920000Y-71815000D02*
X96580000Y-71815000D01*
X93920000Y-66675000D02*
X93920000Y-71815000D01*
X96580000Y-66675000D02*
X96580000Y-71815000D01*
X93920000Y-66675000D02*
X96580000Y-66675000D01*
X93920000Y-65405000D02*
X93920000Y-64075000D01*
X93920000Y-64075000D02*
X95250000Y-64075000D01*
X20380000Y-67250000D02*
X17720000Y-67250000D01*
X20380000Y-85090000D02*
X20380000Y-67250000D01*
X17720000Y-85090000D02*
X17720000Y-67250000D01*
X20380000Y-85090000D02*
X17720000Y-85090000D01*
X20380000Y-86360000D02*
X20380000Y-87690000D01*
X20380000Y-87690000D02*
X19050000Y-87690000D01*
X106620000Y-71815000D02*
X109280000Y-71815000D01*
X106620000Y-66675000D02*
X106620000Y-71815000D01*
X109280000Y-66675000D02*
X109280000Y-71815000D01*
X106620000Y-66675000D02*
X109280000Y-66675000D01*
X106620000Y-65405000D02*
X106620000Y-64075000D01*
X106620000Y-64075000D02*
X107950000Y-64075000D01*
X46930000Y-87690000D02*
X49590000Y-87690000D01*
X46930000Y-69850000D02*
X46930000Y-87690000D01*
X49590000Y-69850000D02*
X49590000Y-87690000D01*
X46930000Y-69850000D02*
X49590000Y-69850000D01*
X46930000Y-68580000D02*
X46930000Y-67250000D01*
X46930000Y-67250000D02*
X48260000Y-67250000D01*
X104200000Y-49590000D02*
X104200000Y-46930000D01*
X71120000Y-49590000D02*
X104200000Y-49590000D01*
X71120000Y-46930000D02*
X104200000Y-46930000D01*
X71120000Y-49590000D02*
X71120000Y-46930000D01*
X69850000Y-49590000D02*
X68520000Y-49590000D01*
X68520000Y-49590000D02*
X68520000Y-48260000D01*
X67885000Y-23435000D02*
X67885000Y-26095000D01*
X100965000Y-23435000D02*
X67885000Y-23435000D01*
X100965000Y-26095000D02*
X67885000Y-26095000D01*
X100965000Y-23435000D02*
X100965000Y-26095000D01*
X102235000Y-23435000D02*
X103565000Y-23435000D01*
X103565000Y-23435000D02*
X103565000Y-24765000D01*
X93920000Y-86420000D02*
X96580000Y-86420000D01*
X93920000Y-81280000D02*
X93920000Y-86420000D01*
X96580000Y-81280000D02*
X96580000Y-86420000D01*
X93920000Y-81280000D02*
X96580000Y-81280000D01*
X93920000Y-80010000D02*
X93920000Y-78680000D01*
X93920000Y-78680000D02*
X95250000Y-78680000D01*
X56575000Y-67250000D02*
X53915000Y-67250000D01*
X56575000Y-85090000D02*
X56575000Y-67250000D01*
X53915000Y-85090000D02*
X53915000Y-67250000D01*
X56575000Y-85090000D02*
X53915000Y-85090000D01*
X56575000Y-86360000D02*
X56575000Y-87690000D01*
X56575000Y-87690000D02*
X55245000Y-87690000D01*
X106620000Y-86420000D02*
X109280000Y-86420000D01*
X106620000Y-81280000D02*
X106620000Y-86420000D01*
X109280000Y-81280000D02*
X109280000Y-86420000D01*
X106620000Y-81280000D02*
X109280000Y-81280000D01*
X106620000Y-80010000D02*
X106620000Y-78680000D01*
X106620000Y-78680000D02*
X107950000Y-78680000D01*
X44390000Y-109280000D02*
X47050000Y-109280000D01*
X44390000Y-104140000D02*
X44390000Y-109280000D01*
X47050000Y-104140000D02*
X47050000Y-109280000D01*
X44390000Y-104140000D02*
X47050000Y-104140000D01*
X44390000Y-102870000D02*
X44390000Y-101540000D01*
X44390000Y-101540000D02*
X45720000Y-101540000D01*
X39430000Y-101540000D02*
X36770000Y-101540000D01*
X39430000Y-106680000D02*
X39430000Y-101540000D01*
X36770000Y-106680000D02*
X36770000Y-101540000D01*
X39430000Y-106680000D02*
X36770000Y-106680000D01*
X39430000Y-107950000D02*
X39430000Y-109280000D01*
X39430000Y-109280000D02*
X38100000Y-109280000D01*
X84395000Y-87690000D02*
X87055000Y-87690000D01*
X84395000Y-69850000D02*
X84395000Y-87690000D01*
X87055000Y-69850000D02*
X87055000Y-87690000D01*
X84395000Y-69850000D02*
X87055000Y-69850000D01*
X84395000Y-68580000D02*
X84395000Y-67250000D01*
X84395000Y-67250000D02*
X85725000Y-67250000D01*
X57725000Y-109280000D02*
X60385000Y-109280000D01*
X57725000Y-104140000D02*
X57725000Y-109280000D01*
X60385000Y-104140000D02*
X60385000Y-109280000D01*
X57725000Y-104140000D02*
X60385000Y-104140000D01*
X57725000Y-102870000D02*
X57725000Y-101540000D01*
X57725000Y-101540000D02*
X59055000Y-101540000D01*
X26095000Y-101540000D02*
X23435000Y-101540000D01*
X26095000Y-106680000D02*
X26095000Y-101540000D01*
X23435000Y-106680000D02*
X23435000Y-101540000D01*
X26095000Y-106680000D02*
X23435000Y-106680000D01*
X26095000Y-107950000D02*
X26095000Y-109280000D01*
X26095000Y-109280000D02*
X24765000Y-109280000D01*
X100800000Y-69545000D02*
X102400000Y-69545000D01*
X102400000Y-66345000D02*
X100100000Y-66345000D01*
D12*
X83575000Y-38345000D02*
X83575000Y-37720000D01*
X87875000Y-34045000D02*
X87875000Y-34670000D01*
X83575000Y-34045000D02*
X83575000Y-34670000D01*
X87875000Y-38345000D02*
X87250000Y-38345000D01*
X87875000Y-34045000D02*
X87250000Y-34045000D01*
X83575000Y-34045000D02*
X84200000Y-34045000D01*
X83575000Y-38345000D02*
X84200000Y-38345000D01*
D13*
X100800000Y-84150000D02*
X102400000Y-84150000D01*
X102400000Y-80950000D02*
X100100000Y-80950000D01*
X51905000Y-107010000D02*
X53505000Y-107010000D01*
X53505000Y-103810000D02*
X51205000Y-103810000D01*
X25535000Y-61540000D02*
X41775000Y-61540000D01*
X41775000Y-61540000D02*
X41775000Y-69160000D01*
X41775000Y-85160000D02*
X41775000Y-85780000D01*
X41775000Y-85780000D02*
X39655000Y-85780000D01*
X27655000Y-85780000D02*
X25535000Y-85780000D01*
X25535000Y-85780000D02*
X25535000Y-85160000D01*
X25535000Y-69160000D02*
X25535000Y-61540000D01*
X25535000Y-69160000D02*
X24925000Y-69160000D01*
X62365000Y-62175000D02*
X78605000Y-62175000D01*
X78605000Y-62175000D02*
X78605000Y-69795000D01*
X78605000Y-85795000D02*
X78605000Y-86415000D01*
X78605000Y-86415000D02*
X76485000Y-86415000D01*
X64485000Y-86415000D02*
X62365000Y-86415000D01*
X62365000Y-86415000D02*
X62365000Y-85795000D01*
X62365000Y-69795000D02*
X62365000Y-62175000D01*
X62365000Y-69795000D02*
X61755000Y-69795000D01*
X32550000Y-103810000D02*
X30950000Y-103810000D01*
X30950000Y-107010000D02*
X33250000Y-107010000D01*
X81340000Y-100270000D02*
X78680000Y-100270000D01*
X81340000Y-107950000D02*
X81340000Y-100270000D01*
X78680000Y-107950000D02*
X78680000Y-100270000D01*
X81340000Y-107950000D02*
X78680000Y-107950000D01*
X81340000Y-109220000D02*
X81340000Y-110550000D01*
X81340000Y-110550000D02*
X80010000Y-110550000D01*
X65980000Y-110550000D02*
X68640000Y-110550000D01*
X65980000Y-102870000D02*
X65980000Y-110550000D01*
X68640000Y-102870000D02*
X68640000Y-110550000D01*
X65980000Y-102870000D02*
X68640000Y-102870000D01*
X65980000Y-101600000D02*
X65980000Y-100270000D01*
X65980000Y-100270000D02*
X67310000Y-100270000D01*
X103565000Y-100270000D02*
X100905000Y-100270000D01*
X103565000Y-107950000D02*
X103565000Y-100270000D01*
X100905000Y-107950000D02*
X100905000Y-100270000D01*
X103565000Y-107950000D02*
X100905000Y-107950000D01*
X103565000Y-109220000D02*
X103565000Y-110550000D01*
X103565000Y-110550000D02*
X102235000Y-110550000D01*
X87570000Y-110550000D02*
X90230000Y-110550000D01*
X87570000Y-102870000D02*
X87570000Y-110550000D01*
X90230000Y-102870000D02*
X90230000Y-110550000D01*
X87570000Y-102870000D02*
X90230000Y-102870000D01*
X87570000Y-101600000D02*
X87570000Y-100270000D01*
X87570000Y-100270000D02*
X88900000Y-100270000D01*
X72760000Y-107020000D02*
X74560000Y-107020000D01*
X74560000Y-103800000D02*
X71610000Y-103800000D01*
X94350000Y-107020000D02*
X96150000Y-107020000D01*
X96150000Y-103800000D02*
X93200000Y-103800000D01*
D12*
X37338095Y-38997381D02*
X37338095Y-39806905D01*
X37385714Y-39902143D01*
X37433333Y-39949762D01*
X37528571Y-39997381D01*
X37719048Y-39997381D01*
X37814286Y-39949762D01*
X37861905Y-39902143D01*
X37909524Y-39806905D01*
X37909524Y-38997381D01*
X38909524Y-39997381D02*
X38338095Y-39997381D01*
X38623809Y-39997381D02*
X38623809Y-38997381D01*
X38528571Y-39140238D01*
X38433333Y-39235476D01*
X38338095Y-39283095D01*
X56392381Y-25098333D02*
X57106667Y-25098333D01*
X57249524Y-25145953D01*
X57344762Y-25241191D01*
X57392381Y-25384048D01*
X57392381Y-25479286D01*
X56487619Y-24669762D02*
X56440000Y-24622143D01*
X56392381Y-24526905D01*
X56392381Y-24288809D01*
X56440000Y-24193571D01*
X56487619Y-24145952D01*
X56582857Y-24098333D01*
X56678095Y-24098333D01*
X56820952Y-24145952D01*
X57392381Y-24717381D01*
X57392381Y-24098333D01*
X18712381Y-47958333D02*
X19426667Y-47958333D01*
X19569524Y-48005953D01*
X19664762Y-48101191D01*
X19712381Y-48244048D01*
X19712381Y-48339286D01*
X19712381Y-46958333D02*
X19712381Y-47529762D01*
X19712381Y-47244048D02*
X18712381Y-47244048D01*
X18855238Y-47339286D01*
X18950476Y-47434524D01*
X18998095Y-47529762D01*
X18712381Y-47958333D02*
X19426667Y-47958333D01*
X19569524Y-48005953D01*
X19664762Y-48101191D01*
X19712381Y-48244048D01*
X19712381Y-48339286D01*
X19712381Y-46958333D02*
X19712381Y-47529762D01*
X19712381Y-47244048D02*
X18712381Y-47244048D01*
X18855238Y-47339286D01*
X18950476Y-47434524D01*
X18998095Y-47529762D01*
X56392381Y-25098333D02*
X57106667Y-25098333D01*
X57249524Y-25145953D01*
X57344762Y-25241191D01*
X57392381Y-25384048D01*
X57392381Y-25479286D01*
X56487619Y-24669762D02*
X56440000Y-24622143D01*
X56392381Y-24526905D01*
X56392381Y-24288809D01*
X56440000Y-24193571D01*
X56487619Y-24145952D01*
X56582857Y-24098333D01*
X56678095Y-24098333D01*
X56820952Y-24145952D01*
X57392381Y-24717381D01*
X57392381Y-24098333D01*
X37338095Y-38997381D02*
X37338095Y-39806905D01*
X37385714Y-39902143D01*
X37433333Y-39949762D01*
X37528571Y-39997381D01*
X37719048Y-39997381D01*
X37814286Y-39949762D01*
X37861905Y-39902143D01*
X37909524Y-39806905D01*
X37909524Y-38997381D01*
X38909524Y-39997381D02*
X38338095Y-39997381D01*
X38623809Y-39997381D02*
X38623809Y-38997381D01*
X38528571Y-39140238D01*
X38433333Y-39235476D01*
X38338095Y-39283095D01*
X94916667Y-62527381D02*
X94916667Y-63241667D01*
X94869047Y-63384524D01*
X94773809Y-63479762D01*
X94630952Y-63527381D01*
X94535714Y-63527381D01*
X95297619Y-62527381D02*
X95916667Y-62527381D01*
X95583333Y-62908333D01*
X95726191Y-62908333D01*
X95821429Y-62955952D01*
X95869048Y-63003571D01*
X95916667Y-63098810D01*
X95916667Y-63336905D01*
X95869048Y-63432143D01*
X95821429Y-63479762D01*
X95726191Y-63527381D01*
X95440476Y-63527381D01*
X95345238Y-63479762D01*
X95297619Y-63432143D01*
X18716667Y-88142381D02*
X18716667Y-88856667D01*
X18669047Y-88999524D01*
X18573809Y-89094762D01*
X18430952Y-89142381D01*
X18335714Y-89142381D01*
X19621429Y-88475714D02*
X19621429Y-89142381D01*
X19383333Y-88094762D02*
X19145238Y-88809048D01*
X19764286Y-88809048D01*
X107616667Y-62527381D02*
X107616667Y-63241667D01*
X107569047Y-63384524D01*
X107473809Y-63479762D01*
X107330952Y-63527381D01*
X107235714Y-63527381D01*
X108569048Y-62527381D02*
X108092857Y-62527381D01*
X108045238Y-63003571D01*
X108092857Y-62955952D01*
X108188095Y-62908333D01*
X108426191Y-62908333D01*
X108521429Y-62955952D01*
X108569048Y-63003571D01*
X108616667Y-63098810D01*
X108616667Y-63336905D01*
X108569048Y-63432143D01*
X108521429Y-63479762D01*
X108426191Y-63527381D01*
X108188095Y-63527381D01*
X108092857Y-63479762D01*
X108045238Y-63432143D01*
X47926667Y-65702381D02*
X47926667Y-66416667D01*
X47879047Y-66559524D01*
X47783809Y-66654762D01*
X47640952Y-66702381D01*
X47545714Y-66702381D01*
X48831429Y-65702381D02*
X48640952Y-65702381D01*
X48545714Y-65750000D01*
X48498095Y-65797619D01*
X48402857Y-65940476D01*
X48355238Y-66130952D01*
X48355238Y-66511905D01*
X48402857Y-66607143D01*
X48450476Y-66654762D01*
X48545714Y-66702381D01*
X48736191Y-66702381D01*
X48831429Y-66654762D01*
X48879048Y-66607143D01*
X48926667Y-66511905D01*
X48926667Y-66273810D01*
X48879048Y-66178571D01*
X48831429Y-66130952D01*
X48736191Y-66083333D01*
X48545714Y-66083333D01*
X48450476Y-66130952D01*
X48402857Y-66178571D01*
X48355238Y-66273810D01*
X66972381Y-48593333D02*
X67686667Y-48593333D01*
X67829524Y-48640953D01*
X67924762Y-48736191D01*
X67972381Y-48879048D01*
X67972381Y-48974286D01*
X66972381Y-48212381D02*
X66972381Y-47545714D01*
X67972381Y-47974286D01*
X104017381Y-25098333D02*
X104731667Y-25098333D01*
X104874524Y-25145953D01*
X104969762Y-25241191D01*
X105017381Y-25384048D01*
X105017381Y-25479286D01*
X104445952Y-24479286D02*
X104398333Y-24574524D01*
X104350714Y-24622143D01*
X104255476Y-24669762D01*
X104207857Y-24669762D01*
X104112619Y-24622143D01*
X104065000Y-24574524D01*
X104017381Y-24479286D01*
X104017381Y-24288809D01*
X104065000Y-24193571D01*
X104112619Y-24145952D01*
X104207857Y-24098333D01*
X104255476Y-24098333D01*
X104350714Y-24145952D01*
X104398333Y-24193571D01*
X104445952Y-24288809D01*
X104445952Y-24479286D01*
X104493571Y-24574524D01*
X104541190Y-24622143D01*
X104636429Y-24669762D01*
X104826905Y-24669762D01*
X104922143Y-24622143D01*
X104969762Y-24574524D01*
X105017381Y-24479286D01*
X105017381Y-24288809D01*
X104969762Y-24193571D01*
X104922143Y-24145952D01*
X104826905Y-24098333D01*
X104636429Y-24098333D01*
X104541190Y-24145952D01*
X104493571Y-24193571D01*
X104445952Y-24288809D01*
X94916667Y-77132381D02*
X94916667Y-77846667D01*
X94869047Y-77989524D01*
X94773809Y-78084762D01*
X94630952Y-78132381D01*
X94535714Y-78132381D01*
X95440476Y-78132381D02*
X95630952Y-78132381D01*
X95726191Y-78084762D01*
X95773810Y-78037143D01*
X95869048Y-77894286D01*
X95916667Y-77703810D01*
X95916667Y-77322857D01*
X95869048Y-77227619D01*
X95821429Y-77180000D01*
X95726191Y-77132381D01*
X95535714Y-77132381D01*
X95440476Y-77180000D01*
X95392857Y-77227619D01*
X95345238Y-77322857D01*
X95345238Y-77560952D01*
X95392857Y-77656190D01*
X95440476Y-77703810D01*
X95535714Y-77751429D01*
X95726191Y-77751429D01*
X95821429Y-77703810D01*
X95869048Y-77656190D01*
X95916667Y-77560952D01*
X54435477Y-88142381D02*
X54435477Y-88856667D01*
X54387857Y-88999524D01*
X54292619Y-89094762D01*
X54149762Y-89142381D01*
X54054524Y-89142381D01*
X55435477Y-89142381D02*
X54864048Y-89142381D01*
X55149762Y-89142381D02*
X55149762Y-88142381D01*
X55054524Y-88285238D01*
X54959286Y-88380476D01*
X54864048Y-88428095D01*
X56054524Y-88142381D02*
X56149763Y-88142381D01*
X56245001Y-88190000D01*
X56292620Y-88237619D01*
X56340239Y-88332857D01*
X56387858Y-88523333D01*
X56387858Y-88761429D01*
X56340239Y-88951905D01*
X56292620Y-89047143D01*
X56245001Y-89094762D01*
X56149763Y-89142381D01*
X56054524Y-89142381D01*
X55959286Y-89094762D01*
X55911667Y-89047143D01*
X55864048Y-88951905D01*
X55816429Y-88761429D01*
X55816429Y-88523333D01*
X55864048Y-88332857D01*
X55911667Y-88237619D01*
X55959286Y-88190000D01*
X56054524Y-88142381D01*
X107140477Y-77132381D02*
X107140477Y-77846667D01*
X107092857Y-77989524D01*
X106997619Y-78084762D01*
X106854762Y-78132381D01*
X106759524Y-78132381D01*
X108140477Y-78132381D02*
X107569048Y-78132381D01*
X107854762Y-78132381D02*
X107854762Y-77132381D01*
X107759524Y-77275238D01*
X107664286Y-77370476D01*
X107569048Y-77418095D01*
X109092858Y-78132381D02*
X108521429Y-78132381D01*
X108807143Y-78132381D02*
X108807143Y-77132381D01*
X108711905Y-77275238D01*
X108616667Y-77370476D01*
X108521429Y-77418095D01*
X44910477Y-99992381D02*
X44910477Y-100706667D01*
X44862857Y-100849524D01*
X44767619Y-100944762D01*
X44624762Y-100992381D01*
X44529524Y-100992381D01*
X45910477Y-100992381D02*
X45339048Y-100992381D01*
X45624762Y-100992381D02*
X45624762Y-99992381D01*
X45529524Y-100135238D01*
X45434286Y-100230476D01*
X45339048Y-100278095D01*
X46291429Y-100087619D02*
X46339048Y-100040000D01*
X46434286Y-99992381D01*
X46672382Y-99992381D01*
X46767620Y-100040000D01*
X46815239Y-100087619D01*
X46862858Y-100182857D01*
X46862858Y-100278095D01*
X46815239Y-100420952D01*
X46243810Y-100992381D01*
X46862858Y-100992381D01*
X37290477Y-109732381D02*
X37290477Y-110446667D01*
X37242857Y-110589524D01*
X37147619Y-110684762D01*
X37004762Y-110732381D01*
X36909524Y-110732381D01*
X38290477Y-110732381D02*
X37719048Y-110732381D01*
X38004762Y-110732381D02*
X38004762Y-109732381D01*
X37909524Y-109875238D01*
X37814286Y-109970476D01*
X37719048Y-110018095D01*
X38623810Y-109732381D02*
X39242858Y-109732381D01*
X38909524Y-110113333D01*
X39052382Y-110113333D01*
X39147620Y-110160952D01*
X39195239Y-110208571D01*
X39242858Y-110303810D01*
X39242858Y-110541905D01*
X39195239Y-110637143D01*
X39147620Y-110684762D01*
X39052382Y-110732381D01*
X38766667Y-110732381D01*
X38671429Y-110684762D01*
X38623810Y-110637143D01*
X84915477Y-65702381D02*
X84915477Y-66416667D01*
X84867857Y-66559524D01*
X84772619Y-66654762D01*
X84629762Y-66702381D01*
X84534524Y-66702381D01*
X85915477Y-66702381D02*
X85344048Y-66702381D01*
X85629762Y-66702381D02*
X85629762Y-65702381D01*
X85534524Y-65845238D01*
X85439286Y-65940476D01*
X85344048Y-65988095D01*
X86772620Y-66035714D02*
X86772620Y-66702381D01*
X86534524Y-65654762D02*
X86296429Y-66369048D01*
X86915477Y-66369048D01*
X58245477Y-99992381D02*
X58245477Y-100706667D01*
X58197857Y-100849524D01*
X58102619Y-100944762D01*
X57959762Y-100992381D01*
X57864524Y-100992381D01*
X59245477Y-100992381D02*
X58674048Y-100992381D01*
X58959762Y-100992381D02*
X58959762Y-99992381D01*
X58864524Y-100135238D01*
X58769286Y-100230476D01*
X58674048Y-100278095D01*
X60150239Y-99992381D02*
X59674048Y-99992381D01*
X59626429Y-100468571D01*
X59674048Y-100420952D01*
X59769286Y-100373333D01*
X60007382Y-100373333D01*
X60102620Y-100420952D01*
X60150239Y-100468571D01*
X60197858Y-100563810D01*
X60197858Y-100801905D01*
X60150239Y-100897143D01*
X60102620Y-100944762D01*
X60007382Y-100992381D01*
X59769286Y-100992381D01*
X59674048Y-100944762D01*
X59626429Y-100897143D01*
X23955477Y-109732381D02*
X23955477Y-110446667D01*
X23907857Y-110589524D01*
X23812619Y-110684762D01*
X23669762Y-110732381D01*
X23574524Y-110732381D01*
X24955477Y-110732381D02*
X24384048Y-110732381D01*
X24669762Y-110732381D02*
X24669762Y-109732381D01*
X24574524Y-109875238D01*
X24479286Y-109970476D01*
X24384048Y-110018095D01*
X25812620Y-109732381D02*
X25622143Y-109732381D01*
X25526905Y-109780000D01*
X25479286Y-109827619D01*
X25384048Y-109970476D01*
X25336429Y-110160952D01*
X25336429Y-110541905D01*
X25384048Y-110637143D01*
X25431667Y-110684762D01*
X25526905Y-110732381D01*
X25717382Y-110732381D01*
X25812620Y-110684762D01*
X25860239Y-110637143D01*
X25907858Y-110541905D01*
X25907858Y-110303810D01*
X25860239Y-110208571D01*
X25812620Y-110160952D01*
X25717382Y-110113333D01*
X25526905Y-110113333D01*
X25431667Y-110160952D01*
X25384048Y-110208571D01*
X25336429Y-110303810D01*
X100838095Y-64947381D02*
X100838095Y-65756905D01*
X100885714Y-65852143D01*
X100933333Y-65899762D01*
X101028571Y-65947381D01*
X101219048Y-65947381D01*
X101314286Y-65899762D01*
X101361905Y-65852143D01*
X101409524Y-65756905D01*
X101409524Y-64947381D01*
X101838095Y-65042619D02*
X101885714Y-64995000D01*
X101980952Y-64947381D01*
X102219048Y-64947381D01*
X102314286Y-64995000D01*
X102361905Y-65042619D01*
X102409524Y-65137857D01*
X102409524Y-65233095D01*
X102361905Y-65375952D01*
X101790476Y-65947381D01*
X102409524Y-65947381D01*
X84963095Y-38997381D02*
X84963095Y-39806905D01*
X85010714Y-39902143D01*
X85058333Y-39949762D01*
X85153571Y-39997381D01*
X85344048Y-39997381D01*
X85439286Y-39949762D01*
X85486905Y-39902143D01*
X85534524Y-39806905D01*
X85534524Y-38997381D01*
X85915476Y-38997381D02*
X86534524Y-38997381D01*
X86201190Y-39378333D01*
X86344048Y-39378333D01*
X86439286Y-39425952D01*
X86486905Y-39473571D01*
X86534524Y-39568810D01*
X86534524Y-39806905D01*
X86486905Y-39902143D01*
X86439286Y-39949762D01*
X86344048Y-39997381D01*
X86058333Y-39997381D01*
X85963095Y-39949762D01*
X85915476Y-39902143D01*
X100838095Y-79552381D02*
X100838095Y-80361905D01*
X100885714Y-80457143D01*
X100933333Y-80504762D01*
X101028571Y-80552381D01*
X101219048Y-80552381D01*
X101314286Y-80504762D01*
X101361905Y-80457143D01*
X101409524Y-80361905D01*
X101409524Y-79552381D01*
X102314286Y-79885714D02*
X102314286Y-80552381D01*
X102076190Y-79504762D02*
X101838095Y-80219048D01*
X102457143Y-80219048D01*
X51943095Y-102412381D02*
X51943095Y-103221905D01*
X51990714Y-103317143D01*
X52038333Y-103364762D01*
X52133571Y-103412381D01*
X52324048Y-103412381D01*
X52419286Y-103364762D01*
X52466905Y-103317143D01*
X52514524Y-103221905D01*
X52514524Y-102412381D01*
X53466905Y-102412381D02*
X52990714Y-102412381D01*
X52943095Y-102888571D01*
X52990714Y-102840952D01*
X53085952Y-102793333D01*
X53324048Y-102793333D01*
X53419286Y-102840952D01*
X53466905Y-102888571D01*
X53514524Y-102983810D01*
X53514524Y-103221905D01*
X53466905Y-103317143D01*
X53419286Y-103364762D01*
X53324048Y-103412381D01*
X53085952Y-103412381D01*
X52990714Y-103364762D01*
X52943095Y-103317143D01*
X22285476Y-67852381D02*
X22952143Y-68852381D01*
X22952143Y-67852381D02*
X22285476Y-68852381D01*
X23856905Y-68852381D02*
X23285476Y-68852381D01*
X23571190Y-68852381D02*
X23571190Y-67852381D01*
X23475952Y-67995238D01*
X23380714Y-68090476D01*
X23285476Y-68138095D01*
X59115476Y-68487381D02*
X59782143Y-69487381D01*
X59782143Y-68487381D02*
X59115476Y-69487381D01*
X60115476Y-68582619D02*
X60163095Y-68535000D01*
X60258333Y-68487381D01*
X60496429Y-68487381D01*
X60591667Y-68535000D01*
X60639286Y-68582619D01*
X60686905Y-68677857D01*
X60686905Y-68773095D01*
X60639286Y-68915952D01*
X60067857Y-69487381D01*
X60686905Y-69487381D01*
X30988095Y-107312381D02*
X30988095Y-108121905D01*
X31035714Y-108217143D01*
X31083333Y-108264762D01*
X31178571Y-108312381D01*
X31369048Y-108312381D01*
X31464286Y-108264762D01*
X31511905Y-108217143D01*
X31559524Y-108121905D01*
X31559524Y-107312381D01*
X32464286Y-107312381D02*
X32273809Y-107312381D01*
X32178571Y-107360000D01*
X32130952Y-107407619D01*
X32035714Y-107550476D01*
X31988095Y-107740952D01*
X31988095Y-108121905D01*
X32035714Y-108217143D01*
X32083333Y-108264762D01*
X32178571Y-108312381D01*
X32369048Y-108312381D01*
X32464286Y-108264762D01*
X32511905Y-108217143D01*
X32559524Y-108121905D01*
X32559524Y-107883810D01*
X32511905Y-107788571D01*
X32464286Y-107740952D01*
X32369048Y-107693333D01*
X32178571Y-107693333D01*
X32083333Y-107740952D01*
X32035714Y-107788571D01*
X31988095Y-107883810D01*
X79200477Y-111002381D02*
X79200477Y-111716667D01*
X79152857Y-111859524D01*
X79057619Y-111954762D01*
X78914762Y-112002381D01*
X78819524Y-112002381D01*
X80200477Y-112002381D02*
X79629048Y-112002381D01*
X79914762Y-112002381D02*
X79914762Y-111002381D01*
X79819524Y-111145238D01*
X79724286Y-111240476D01*
X79629048Y-111288095D01*
X80533810Y-111002381D02*
X81200477Y-111002381D01*
X80771905Y-112002381D01*
X66500477Y-98722381D02*
X66500477Y-99436667D01*
X66452857Y-99579524D01*
X66357619Y-99674762D01*
X66214762Y-99722381D01*
X66119524Y-99722381D01*
X67500477Y-99722381D02*
X66929048Y-99722381D01*
X67214762Y-99722381D02*
X67214762Y-98722381D01*
X67119524Y-98865238D01*
X67024286Y-98960476D01*
X66929048Y-99008095D01*
X68071905Y-99150952D02*
X67976667Y-99103333D01*
X67929048Y-99055714D01*
X67881429Y-98960476D01*
X67881429Y-98912857D01*
X67929048Y-98817619D01*
X67976667Y-98770000D01*
X68071905Y-98722381D01*
X68262382Y-98722381D01*
X68357620Y-98770000D01*
X68405239Y-98817619D01*
X68452858Y-98912857D01*
X68452858Y-98960476D01*
X68405239Y-99055714D01*
X68357620Y-99103333D01*
X68262382Y-99150952D01*
X68071905Y-99150952D01*
X67976667Y-99198571D01*
X67929048Y-99246190D01*
X67881429Y-99341429D01*
X67881429Y-99531905D01*
X67929048Y-99627143D01*
X67976667Y-99674762D01*
X68071905Y-99722381D01*
X68262382Y-99722381D01*
X68357620Y-99674762D01*
X68405239Y-99627143D01*
X68452858Y-99531905D01*
X68452858Y-99341429D01*
X68405239Y-99246190D01*
X68357620Y-99198571D01*
X68262382Y-99150952D01*
X101425477Y-111002381D02*
X101425477Y-111716667D01*
X101377857Y-111859524D01*
X101282619Y-111954762D01*
X101139762Y-112002381D01*
X101044524Y-112002381D01*
X102425477Y-112002381D02*
X101854048Y-112002381D01*
X102139762Y-112002381D02*
X102139762Y-111002381D01*
X102044524Y-111145238D01*
X101949286Y-111240476D01*
X101854048Y-111288095D01*
X102901667Y-112002381D02*
X103092143Y-112002381D01*
X103187382Y-111954762D01*
X103235001Y-111907143D01*
X103330239Y-111764286D01*
X103377858Y-111573810D01*
X103377858Y-111192857D01*
X103330239Y-111097619D01*
X103282620Y-111050000D01*
X103187382Y-111002381D01*
X102996905Y-111002381D01*
X102901667Y-111050000D01*
X102854048Y-111097619D01*
X102806429Y-111192857D01*
X102806429Y-111430952D01*
X102854048Y-111526190D01*
X102901667Y-111573810D01*
X102996905Y-111621429D01*
X103187382Y-111621429D01*
X103282620Y-111573810D01*
X103330239Y-111526190D01*
X103377858Y-111430952D01*
X88090477Y-98722381D02*
X88090477Y-99436667D01*
X88042857Y-99579524D01*
X87947619Y-99674762D01*
X87804762Y-99722381D01*
X87709524Y-99722381D01*
X88519048Y-98817619D02*
X88566667Y-98770000D01*
X88661905Y-98722381D01*
X88900001Y-98722381D01*
X88995239Y-98770000D01*
X89042858Y-98817619D01*
X89090477Y-98912857D01*
X89090477Y-99008095D01*
X89042858Y-99150952D01*
X88471429Y-99722381D01*
X89090477Y-99722381D01*
X89709524Y-98722381D02*
X89804763Y-98722381D01*
X89900001Y-98770000D01*
X89947620Y-98817619D01*
X89995239Y-98912857D01*
X90042858Y-99103333D01*
X90042858Y-99341429D01*
X89995239Y-99531905D01*
X89947620Y-99627143D01*
X89900001Y-99674762D01*
X89804763Y-99722381D01*
X89709524Y-99722381D01*
X89614286Y-99674762D01*
X89566667Y-99627143D01*
X89519048Y-99531905D01*
X89471429Y-99341429D01*
X89471429Y-99103333D01*
X89519048Y-98912857D01*
X89566667Y-98817619D01*
X89614286Y-98770000D01*
X89709524Y-98722381D01*
X72898095Y-102362381D02*
X72898095Y-103171905D01*
X72945714Y-103267143D01*
X72993333Y-103314762D01*
X73088571Y-103362381D01*
X73279048Y-103362381D01*
X73374286Y-103314762D01*
X73421905Y-103267143D01*
X73469524Y-103171905D01*
X73469524Y-102362381D01*
X73850476Y-102362381D02*
X74517143Y-102362381D01*
X74088571Y-103362381D01*
X94488095Y-102362381D02*
X94488095Y-103171905D01*
X94535714Y-103267143D01*
X94583333Y-103314762D01*
X94678571Y-103362381D01*
X94869048Y-103362381D01*
X94964286Y-103314762D01*
X95011905Y-103267143D01*
X95059524Y-103171905D01*
X95059524Y-102362381D01*
X95678571Y-102790952D02*
X95583333Y-102743333D01*
X95535714Y-102695714D01*
X95488095Y-102600476D01*
X95488095Y-102552857D01*
X95535714Y-102457619D01*
X95583333Y-102410000D01*
X95678571Y-102362381D01*
X95869048Y-102362381D01*
X95964286Y-102410000D01*
X96011905Y-102457619D01*
X96059524Y-102552857D01*
X96059524Y-102600476D01*
X96011905Y-102695714D01*
X95964286Y-102743333D01*
X95869048Y-102790952D01*
X95678571Y-102790952D01*
X95583333Y-102838571D01*
X95535714Y-102886190D01*
X95488095Y-102981429D01*
X95488095Y-103171905D01*
X95535714Y-103267143D01*
X95583333Y-103314762D01*
X95678571Y-103362381D01*
X95869048Y-103362381D01*
X95964286Y-103314762D01*
X96011905Y-103267143D01*
X96059524Y-103171905D01*
X96059524Y-102981429D01*
X96011905Y-102886190D01*
X95964286Y-102838571D01*
X95869048Y-102790952D01*
M02*
