G04 #@! TF.FileFunction,Copper,L1,Top,Signal*
%FSLAX46Y46*%
G04 Gerber Fmt 4.6, Leading zero omitted, Abs format (unit mm)*
G04 Created by KiCad (PCBNEW 4.0.7) date 02/20/18 21:57:49*
%MOMM*%
%LPD*%
G01*
G04 APERTURE LIST*
%ADD10C,0.100000*%
%ADD11R,0.800000X0.200000*%
%ADD12R,0.200000X0.800000*%
%ADD13R,1.200000X1.200000*%
%ADD14R,1.700000X1.700000*%
%ADD15O,1.700000X1.700000*%
%ADD16R,0.700000X0.510000*%
%ADD17R,2.500000X1.000000*%
%ADD18R,1.000000X1.800000*%
%ADD19R,1.560000X0.400000*%
%ADD20C,0.160000*%
G04 APERTURE END LIST*
D10*
D11*
X40050000Y-37395000D03*
X40050000Y-36995000D03*
X40050000Y-36595000D03*
X40050000Y-36195000D03*
X40050000Y-35795000D03*
X40050000Y-35395000D03*
X40050000Y-34995000D03*
D12*
X39300000Y-34245000D03*
X38900000Y-34245000D03*
X38500000Y-34245000D03*
X38100000Y-34245000D03*
X37700000Y-34245000D03*
X37300000Y-34245000D03*
X36900000Y-34245000D03*
D11*
X36150000Y-34995000D03*
X36150000Y-35395000D03*
X36150000Y-35795000D03*
X36150000Y-36195000D03*
X36150000Y-36595000D03*
X36150000Y-36995000D03*
X36150000Y-37395000D03*
D12*
X36900000Y-38145000D03*
X37300000Y-38145000D03*
X37700000Y-38145000D03*
X38100000Y-38145000D03*
X38500000Y-38145000D03*
X38900000Y-38145000D03*
X39300000Y-38145000D03*
D13*
X37500000Y-35595000D03*
X37500000Y-36795000D03*
X38700000Y-35595000D03*
X38700000Y-36795000D03*
D14*
X54610000Y-24765000D03*
D15*
X52070000Y-24765000D03*
X49530000Y-24765000D03*
X46990000Y-24765000D03*
X44450000Y-24765000D03*
X41910000Y-24765000D03*
X39370000Y-24765000D03*
X36830000Y-24765000D03*
X34290000Y-24765000D03*
X31750000Y-24765000D03*
X29210000Y-24765000D03*
X26670000Y-24765000D03*
X24130000Y-24765000D03*
X21590000Y-24765000D03*
D14*
X21590000Y-47625000D03*
D15*
X24130000Y-47625000D03*
X26670000Y-47625000D03*
X29210000Y-47625000D03*
X31750000Y-47625000D03*
X34290000Y-47625000D03*
X36830000Y-47625000D03*
X39370000Y-47625000D03*
X41910000Y-47625000D03*
X44450000Y-47625000D03*
X46990000Y-47625000D03*
X49530000Y-47625000D03*
X52070000Y-47625000D03*
X54610000Y-47625000D03*
D14*
X21590000Y-47625000D03*
D15*
X24130000Y-47625000D03*
X26670000Y-47625000D03*
X29210000Y-47625000D03*
X31750000Y-47625000D03*
X34290000Y-47625000D03*
X36830000Y-47625000D03*
X39370000Y-47625000D03*
X41910000Y-47625000D03*
X44450000Y-47625000D03*
X46990000Y-47625000D03*
X49530000Y-47625000D03*
X52070000Y-47625000D03*
X54610000Y-47625000D03*
D14*
X54610000Y-24765000D03*
D15*
X52070000Y-24765000D03*
X49530000Y-24765000D03*
X46990000Y-24765000D03*
X44450000Y-24765000D03*
X41910000Y-24765000D03*
X39370000Y-24765000D03*
X36830000Y-24765000D03*
X34290000Y-24765000D03*
X31750000Y-24765000D03*
X29210000Y-24765000D03*
X26670000Y-24765000D03*
X24130000Y-24765000D03*
X21590000Y-24765000D03*
D11*
X40050000Y-37395000D03*
X40050000Y-36995000D03*
X40050000Y-36595000D03*
X40050000Y-36195000D03*
X40050000Y-35795000D03*
X40050000Y-35395000D03*
X40050000Y-34995000D03*
D12*
X39300000Y-34245000D03*
X38900000Y-34245000D03*
X38500000Y-34245000D03*
X38100000Y-34245000D03*
X37700000Y-34245000D03*
X37300000Y-34245000D03*
X36900000Y-34245000D03*
D11*
X36150000Y-34995000D03*
X36150000Y-35395000D03*
X36150000Y-35795000D03*
X36150000Y-36195000D03*
X36150000Y-36595000D03*
X36150000Y-36995000D03*
X36150000Y-37395000D03*
D12*
X36900000Y-38145000D03*
X37300000Y-38145000D03*
X37700000Y-38145000D03*
X38100000Y-38145000D03*
X38500000Y-38145000D03*
X38900000Y-38145000D03*
X39300000Y-38145000D03*
D13*
X37500000Y-35595000D03*
X37500000Y-36795000D03*
X38700000Y-35595000D03*
X38700000Y-36795000D03*
D14*
X95250000Y-65405000D03*
D15*
X95250000Y-67945000D03*
X95250000Y-70485000D03*
D14*
X19050000Y-86360000D03*
D15*
X19050000Y-83820000D03*
X19050000Y-81280000D03*
X19050000Y-78740000D03*
X19050000Y-76200000D03*
X19050000Y-73660000D03*
X19050000Y-71120000D03*
X19050000Y-68580000D03*
D14*
X107950000Y-65405000D03*
D15*
X107950000Y-67945000D03*
X107950000Y-70485000D03*
D14*
X48260000Y-68580000D03*
D15*
X48260000Y-71120000D03*
X48260000Y-73660000D03*
X48260000Y-76200000D03*
X48260000Y-78740000D03*
X48260000Y-81280000D03*
X48260000Y-83820000D03*
X48260000Y-86360000D03*
D14*
X69850000Y-48260000D03*
D15*
X72390000Y-48260000D03*
X74930000Y-48260000D03*
X77470000Y-48260000D03*
X80010000Y-48260000D03*
X82550000Y-48260000D03*
X85090000Y-48260000D03*
X87630000Y-48260000D03*
X90170000Y-48260000D03*
X92710000Y-48260000D03*
X95250000Y-48260000D03*
X97790000Y-48260000D03*
X100330000Y-48260000D03*
X102870000Y-48260000D03*
D14*
X102235000Y-24765000D03*
D15*
X99695000Y-24765000D03*
X97155000Y-24765000D03*
X94615000Y-24765000D03*
X92075000Y-24765000D03*
X89535000Y-24765000D03*
X86995000Y-24765000D03*
X84455000Y-24765000D03*
X81915000Y-24765000D03*
X79375000Y-24765000D03*
X76835000Y-24765000D03*
X74295000Y-24765000D03*
X71755000Y-24765000D03*
X69215000Y-24765000D03*
D14*
X95250000Y-80010000D03*
D15*
X95250000Y-82550000D03*
X95250000Y-85090000D03*
D14*
X55245000Y-86360000D03*
D15*
X55245000Y-83820000D03*
X55245000Y-81280000D03*
X55245000Y-78740000D03*
X55245000Y-76200000D03*
X55245000Y-73660000D03*
X55245000Y-71120000D03*
X55245000Y-68580000D03*
D14*
X107950000Y-80010000D03*
D15*
X107950000Y-82550000D03*
X107950000Y-85090000D03*
D14*
X45720000Y-102870000D03*
D15*
X45720000Y-105410000D03*
X45720000Y-107950000D03*
D14*
X38100000Y-107950000D03*
D15*
X38100000Y-105410000D03*
X38100000Y-102870000D03*
D14*
X85725000Y-68580000D03*
D15*
X85725000Y-71120000D03*
X85725000Y-73660000D03*
X85725000Y-76200000D03*
X85725000Y-78740000D03*
X85725000Y-81280000D03*
X85725000Y-83820000D03*
X85725000Y-86360000D03*
D14*
X59055000Y-102870000D03*
D15*
X59055000Y-105410000D03*
X59055000Y-107950000D03*
D14*
X24765000Y-107950000D03*
D15*
X24765000Y-105410000D03*
X24765000Y-102870000D03*
D16*
X100440000Y-66995000D03*
X100440000Y-67945000D03*
X100440000Y-68895000D03*
X102760000Y-68895000D03*
X102760000Y-67945000D03*
X102760000Y-66995000D03*
D11*
X87675000Y-37395000D03*
X87675000Y-36995000D03*
X87675000Y-36595000D03*
X87675000Y-36195000D03*
X87675000Y-35795000D03*
X87675000Y-35395000D03*
X87675000Y-34995000D03*
D12*
X86925000Y-34245000D03*
X86525000Y-34245000D03*
X86125000Y-34245000D03*
X85725000Y-34245000D03*
X85325000Y-34245000D03*
X84925000Y-34245000D03*
X84525000Y-34245000D03*
D11*
X83775000Y-34995000D03*
X83775000Y-35395000D03*
X83775000Y-35795000D03*
X83775000Y-36195000D03*
X83775000Y-36595000D03*
X83775000Y-36995000D03*
X83775000Y-37395000D03*
D12*
X84525000Y-38145000D03*
X84925000Y-38145000D03*
X85325000Y-38145000D03*
X85725000Y-38145000D03*
X86125000Y-38145000D03*
X86525000Y-38145000D03*
X86925000Y-38145000D03*
D13*
X85125000Y-35595000D03*
X85125000Y-36795000D03*
X86325000Y-35595000D03*
X86325000Y-36795000D03*
D16*
X100440000Y-81600000D03*
X100440000Y-82550000D03*
X100440000Y-83500000D03*
X102760000Y-83500000D03*
X102760000Y-82550000D03*
X102760000Y-81600000D03*
X51545000Y-104460000D03*
X51545000Y-105410000D03*
X51545000Y-106360000D03*
X53865000Y-106360000D03*
X53865000Y-105410000D03*
X53865000Y-104460000D03*
D17*
X26055000Y-70160000D03*
X26055000Y-72160000D03*
X26055000Y-74160000D03*
X26055000Y-76160000D03*
X26055000Y-78160000D03*
X26055000Y-80160000D03*
X26055000Y-82160000D03*
X26055000Y-84160000D03*
D18*
X28655000Y-85660000D03*
X30655000Y-85660000D03*
X32655000Y-85660000D03*
X34655000Y-85660000D03*
X36655000Y-85660000D03*
X38655000Y-85660000D03*
D17*
X41255000Y-84160000D03*
X41255000Y-82160000D03*
X41255000Y-80160000D03*
X41255000Y-78160000D03*
X41255000Y-76160000D03*
X41255000Y-74160000D03*
X41255000Y-72160000D03*
X41255000Y-70160000D03*
X62885000Y-70795000D03*
X62885000Y-72795000D03*
X62885000Y-74795000D03*
X62885000Y-76795000D03*
X62885000Y-78795000D03*
X62885000Y-80795000D03*
X62885000Y-82795000D03*
X62885000Y-84795000D03*
D18*
X65485000Y-86295000D03*
X67485000Y-86295000D03*
X69485000Y-86295000D03*
X71485000Y-86295000D03*
X73485000Y-86295000D03*
X75485000Y-86295000D03*
D17*
X78085000Y-84795000D03*
X78085000Y-82795000D03*
X78085000Y-80795000D03*
X78085000Y-78795000D03*
X78085000Y-76795000D03*
X78085000Y-74795000D03*
X78085000Y-72795000D03*
X78085000Y-70795000D03*
D16*
X32910000Y-106360000D03*
X32910000Y-105410000D03*
X32910000Y-104460000D03*
X30590000Y-104460000D03*
X30590000Y-105410000D03*
X30590000Y-106360000D03*
D14*
X80010000Y-109220000D03*
D15*
X80010000Y-106680000D03*
X80010000Y-104140000D03*
X80010000Y-101600000D03*
D14*
X67310000Y-101600000D03*
D15*
X67310000Y-104140000D03*
X67310000Y-106680000D03*
X67310000Y-109220000D03*
D14*
X102235000Y-109220000D03*
D15*
X102235000Y-106680000D03*
X102235000Y-104140000D03*
X102235000Y-101600000D03*
D14*
X88900000Y-101600000D03*
D15*
X88900000Y-104140000D03*
X88900000Y-106680000D03*
X88900000Y-109220000D03*
D19*
X72310000Y-104430000D03*
X72310000Y-105080000D03*
X72310000Y-105740000D03*
X72310000Y-106390000D03*
X75010000Y-106390000D03*
X75010000Y-105740000D03*
X75010000Y-105080000D03*
X75010000Y-104430000D03*
X93900000Y-104430000D03*
X93900000Y-105080000D03*
X93900000Y-105740000D03*
X93900000Y-106390000D03*
X96600000Y-106390000D03*
X96600000Y-105740000D03*
X96600000Y-105080000D03*
X96600000Y-104430000D03*
D20*
X26600000Y-34995000D02*
X36150000Y-34995000D01*
X21590000Y-40005000D02*
X26600000Y-34995000D01*
X21590000Y-47625000D02*
X21590000Y-40005000D01*
X21590000Y-47625000D02*
X21590000Y-40005000D01*
X21590000Y-40005000D02*
X26600000Y-34995000D01*
X26600000Y-34995000D02*
X36150000Y-34995000D01*
X27470000Y-35395000D02*
X36150000Y-35395000D01*
X24130000Y-38735000D02*
X27470000Y-35395000D01*
X24130000Y-47625000D02*
X24130000Y-38735000D01*
X24130000Y-47625000D02*
X24130000Y-38735000D01*
X24130000Y-38735000D02*
X27470000Y-35395000D01*
X27470000Y-35395000D02*
X36150000Y-35395000D01*
X27974240Y-35795000D02*
X36150000Y-35795000D01*
X26670000Y-37099240D02*
X27974240Y-35795000D01*
X26670000Y-47625000D02*
X26670000Y-37099240D01*
X26670000Y-47625000D02*
X26670000Y-37099240D01*
X26670000Y-37099240D02*
X27974240Y-35795000D01*
X27974240Y-35795000D02*
X36150000Y-35795000D01*
X30480000Y-36195000D02*
X36150000Y-36195000D01*
X29210000Y-37465000D02*
X30480000Y-36195000D01*
X29210000Y-47625000D02*
X29210000Y-37465000D01*
X29210000Y-47625000D02*
X29210000Y-37465000D01*
X29210000Y-37465000D02*
X30480000Y-36195000D01*
X30480000Y-36195000D02*
X36150000Y-36195000D01*
X32620000Y-36595000D02*
X36150000Y-36595000D01*
X31750000Y-37465000D02*
X32620000Y-36595000D01*
X31750000Y-47625000D02*
X31750000Y-37465000D01*
X31750000Y-47625000D02*
X31750000Y-37465000D01*
X31750000Y-37465000D02*
X32620000Y-36595000D01*
X32620000Y-36595000D02*
X36150000Y-36595000D01*
X34290000Y-37465000D02*
X34290000Y-47625000D01*
X34760000Y-36995000D02*
X34290000Y-37465000D01*
X36150000Y-36995000D02*
X34760000Y-36995000D01*
X36150000Y-36995000D02*
X34760000Y-36995000D01*
X34760000Y-36995000D02*
X34290000Y-37465000D01*
X34290000Y-37465000D02*
X34290000Y-47625000D01*
X36830000Y-45085000D02*
X36830000Y-47625000D01*
X34925000Y-43180000D02*
X36830000Y-45085000D01*
X34925000Y-38100000D02*
X34925000Y-43180000D01*
X35630000Y-37395000D02*
X34925000Y-38100000D01*
X36150000Y-37395000D02*
X35630000Y-37395000D01*
X36150000Y-37395000D02*
X35630000Y-37395000D01*
X35630000Y-37395000D02*
X34925000Y-38100000D01*
X34925000Y-38100000D02*
X34925000Y-43180000D01*
X34925000Y-43180000D02*
X36830000Y-45085000D01*
X36830000Y-45085000D02*
X36830000Y-47625000D01*
X39370000Y-45720000D02*
X39370000Y-47625000D01*
X36900000Y-43250000D02*
X39370000Y-45720000D01*
X36900000Y-38145000D02*
X36900000Y-43250000D01*
X36900000Y-38145000D02*
X36900000Y-43250000D01*
X36900000Y-43250000D02*
X39370000Y-45720000D01*
X39370000Y-45720000D02*
X39370000Y-47625000D01*
X37300000Y-43015000D02*
X41910000Y-47625000D01*
X37300000Y-38145000D02*
X37300000Y-43015000D01*
X37300000Y-38145000D02*
X37300000Y-43015000D01*
X37300000Y-43015000D02*
X41910000Y-47625000D01*
X42545000Y-45720000D02*
X44450000Y-47625000D01*
X40640000Y-45720000D02*
X42545000Y-45720000D01*
X37700000Y-42780000D02*
X40640000Y-45720000D01*
X37700000Y-38145000D02*
X37700000Y-42780000D01*
X37700000Y-38145000D02*
X37700000Y-42780000D01*
X37700000Y-42780000D02*
X40640000Y-45720000D01*
X40640000Y-45720000D02*
X42545000Y-45720000D01*
X42545000Y-45720000D02*
X44450000Y-47625000D01*
X44450000Y-45085000D02*
X46990000Y-47625000D01*
X40640000Y-45085000D02*
X44450000Y-45085000D01*
X38100000Y-42545000D02*
X40640000Y-45085000D01*
X38100000Y-38145000D02*
X38100000Y-42545000D01*
X38100000Y-38145000D02*
X38100000Y-42545000D01*
X38100000Y-42545000D02*
X40640000Y-45085000D01*
X40640000Y-45085000D02*
X44450000Y-45085000D01*
X44450000Y-45085000D02*
X46990000Y-47625000D01*
X46355000Y-44450000D02*
X49530000Y-47625000D01*
X40640000Y-44450000D02*
X46355000Y-44450000D01*
X38500000Y-42310000D02*
X40640000Y-44450000D01*
X38500000Y-38145000D02*
X38500000Y-42310000D01*
X38500000Y-38145000D02*
X38500000Y-42310000D01*
X38500000Y-42310000D02*
X40640000Y-44450000D01*
X40640000Y-44450000D02*
X46355000Y-44450000D01*
X46355000Y-44450000D02*
X49530000Y-47625000D01*
X48260000Y-43815000D02*
X52070000Y-47625000D01*
X40640000Y-43815000D02*
X48260000Y-43815000D01*
X38900000Y-42075000D02*
X40640000Y-43815000D01*
X38900000Y-38145000D02*
X38900000Y-42075000D01*
X38900000Y-38145000D02*
X38900000Y-42075000D01*
X38900000Y-42075000D02*
X40640000Y-43815000D01*
X40640000Y-43815000D02*
X48260000Y-43815000D01*
X48260000Y-43815000D02*
X52070000Y-47625000D01*
X50165000Y-43180000D02*
X54610000Y-47625000D01*
X40640000Y-43180000D02*
X50165000Y-43180000D01*
X39300000Y-41840000D02*
X40640000Y-43180000D01*
X39300000Y-38145000D02*
X39300000Y-41840000D01*
X39300000Y-38145000D02*
X39300000Y-41840000D01*
X39300000Y-41840000D02*
X40640000Y-43180000D01*
X40640000Y-43180000D02*
X50165000Y-43180000D01*
X50165000Y-43180000D02*
X54610000Y-47625000D01*
X54610000Y-32245000D02*
X54610000Y-24765000D01*
X49460000Y-37395000D02*
X54610000Y-32245000D01*
X40050000Y-37395000D02*
X49460000Y-37395000D01*
X40050000Y-37395000D02*
X49460000Y-37395000D01*
X49460000Y-37395000D02*
X54610000Y-32245000D01*
X54610000Y-32245000D02*
X54610000Y-24765000D01*
X52070000Y-33020000D02*
X52070000Y-24765000D01*
X48095000Y-36995000D02*
X52070000Y-33020000D01*
X40050000Y-36995000D02*
X48095000Y-36995000D01*
X40050000Y-36995000D02*
X48095000Y-36995000D01*
X48095000Y-36995000D02*
X52070000Y-33020000D01*
X52070000Y-33020000D02*
X52070000Y-24765000D01*
X49530000Y-33655000D02*
X49530000Y-24765000D01*
X46590000Y-36595000D02*
X49530000Y-33655000D01*
X40050000Y-36595000D02*
X46590000Y-36595000D01*
X40050000Y-36595000D02*
X46590000Y-36595000D01*
X46590000Y-36595000D02*
X49530000Y-33655000D01*
X49530000Y-33655000D02*
X49530000Y-24765000D01*
X46990000Y-34290000D02*
X46990000Y-24765000D01*
X45085000Y-36195000D02*
X46990000Y-34290000D01*
X40050000Y-36195000D02*
X45085000Y-36195000D01*
X40050000Y-36195000D02*
X45085000Y-36195000D01*
X45085000Y-36195000D02*
X46990000Y-34290000D01*
X46990000Y-34290000D02*
X46990000Y-24765000D01*
X44450000Y-34290000D02*
X44450000Y-24765000D01*
X42945000Y-35795000D02*
X44450000Y-34290000D01*
X40050000Y-35795000D02*
X42945000Y-35795000D01*
X40050000Y-35795000D02*
X42945000Y-35795000D01*
X42945000Y-35795000D02*
X44450000Y-34290000D01*
X44450000Y-34290000D02*
X44450000Y-24765000D01*
X43815000Y-26670000D02*
X41910000Y-24765000D01*
X43815000Y-34290000D02*
X43815000Y-26670000D01*
X42710000Y-35395000D02*
X43815000Y-34290000D01*
X40050000Y-35395000D02*
X42710000Y-35395000D01*
X40050000Y-35395000D02*
X42710000Y-35395000D01*
X42710000Y-35395000D02*
X43815000Y-34290000D01*
X43815000Y-34290000D02*
X43815000Y-26670000D01*
X43815000Y-26670000D02*
X41910000Y-24765000D01*
X42545000Y-27940000D02*
X39370000Y-24765000D01*
X42545000Y-34290000D02*
X42545000Y-27940000D01*
X41840000Y-34995000D02*
X42545000Y-34290000D01*
X40050000Y-34995000D02*
X41840000Y-34995000D01*
X40050000Y-34995000D02*
X41840000Y-34995000D01*
X41840000Y-34995000D02*
X42545000Y-34290000D01*
X42545000Y-34290000D02*
X42545000Y-27940000D01*
X42545000Y-27940000D02*
X39370000Y-24765000D01*
X36830000Y-24905000D02*
X36830000Y-24765000D01*
X39300000Y-27375000D02*
X36830000Y-24905000D01*
X39300000Y-34245000D02*
X39300000Y-27375000D01*
X39300000Y-34245000D02*
X39300000Y-27375000D01*
X39300000Y-27375000D02*
X36830000Y-24905000D01*
X36830000Y-24905000D02*
X36830000Y-24765000D01*
X38900000Y-29375000D02*
X34290000Y-24765000D01*
X38900000Y-34245000D02*
X38900000Y-29375000D01*
X38900000Y-34245000D02*
X38900000Y-29375000D01*
X38900000Y-29375000D02*
X34290000Y-24765000D01*
X38500000Y-31515000D02*
X31750000Y-24765000D01*
X38500000Y-34245000D02*
X38500000Y-31515000D01*
X38500000Y-34245000D02*
X38500000Y-31515000D01*
X38500000Y-31515000D02*
X31750000Y-24765000D01*
X31115000Y-26670000D02*
X29210000Y-24765000D01*
X33020000Y-26670000D02*
X31115000Y-26670000D01*
X38100000Y-31750000D02*
X33020000Y-26670000D01*
X38100000Y-34245000D02*
X38100000Y-31750000D01*
X38100000Y-34245000D02*
X38100000Y-31750000D01*
X38100000Y-31750000D02*
X33020000Y-26670000D01*
X33020000Y-26670000D02*
X31115000Y-26670000D01*
X31115000Y-26670000D02*
X29210000Y-24765000D01*
X29210000Y-27305000D02*
X26670000Y-24765000D01*
X33020000Y-27305000D02*
X29210000Y-27305000D01*
X37700000Y-31985000D02*
X33020000Y-27305000D01*
X37700000Y-34245000D02*
X37700000Y-31985000D01*
X37700000Y-34245000D02*
X37700000Y-31985000D01*
X37700000Y-31985000D02*
X33020000Y-27305000D01*
X33020000Y-27305000D02*
X29210000Y-27305000D01*
X29210000Y-27305000D02*
X26670000Y-24765000D01*
X27305000Y-27940000D02*
X24130000Y-24765000D01*
X33020000Y-27940000D02*
X27305000Y-27940000D01*
X37300000Y-32220000D02*
X33020000Y-27940000D01*
X37300000Y-34245000D02*
X37300000Y-32220000D01*
X37300000Y-34245000D02*
X37300000Y-32220000D01*
X37300000Y-32220000D02*
X33020000Y-27940000D01*
X33020000Y-27940000D02*
X27305000Y-27940000D01*
X27305000Y-27940000D02*
X24130000Y-24765000D01*
X25400000Y-28575000D02*
X21590000Y-24765000D01*
X33020000Y-28575000D02*
X25400000Y-28575000D01*
X36900000Y-32455000D02*
X33020000Y-28575000D01*
X36900000Y-34245000D02*
X36900000Y-32455000D01*
X36900000Y-34245000D02*
X36900000Y-32455000D01*
X36900000Y-32455000D02*
X33020000Y-28575000D01*
X33020000Y-28575000D02*
X25400000Y-28575000D01*
X25400000Y-28575000D02*
X21590000Y-24765000D01*
X99060000Y-66995000D02*
X100440000Y-66995000D01*
X99170000Y-66995000D02*
X99060000Y-66995000D01*
X99060000Y-66995000D02*
X98110000Y-66995000D01*
X98110000Y-66995000D02*
X96520000Y-65405000D01*
X96520000Y-65405000D02*
X95250000Y-65405000D01*
X99060000Y-67945000D02*
X100440000Y-67945000D01*
X95250000Y-67945000D02*
X99060000Y-67945000D01*
X99060000Y-67945000D02*
X99170000Y-67945000D01*
X99060000Y-68895000D02*
X100440000Y-68895000D01*
X95250000Y-70485000D02*
X96520000Y-70485000D01*
X96520000Y-70485000D02*
X98110000Y-68895000D01*
X98110000Y-68895000D02*
X99060000Y-68895000D01*
X99060000Y-68895000D02*
X99170000Y-68895000D01*
X19050000Y-86360000D02*
X20955000Y-86360000D01*
X20955000Y-86360000D02*
X23155000Y-84160000D01*
X23155000Y-84160000D02*
X26055000Y-84160000D01*
X19050000Y-83820000D02*
X20955000Y-83820000D01*
X20955000Y-83820000D02*
X22615000Y-82160000D01*
X22615000Y-82160000D02*
X26055000Y-82160000D01*
X19050000Y-81280000D02*
X22225000Y-81280000D01*
X22225000Y-81280000D02*
X23345000Y-80160000D01*
X23345000Y-80160000D02*
X26055000Y-80160000D01*
X19050000Y-78740000D02*
X22225000Y-78740000D01*
X22225000Y-78740000D02*
X22805000Y-78160000D01*
X22805000Y-78160000D02*
X26055000Y-78160000D01*
X19050000Y-76200000D02*
X26015000Y-76200000D01*
X26015000Y-76200000D02*
X26055000Y-76160000D01*
X19050000Y-73660000D02*
X21590000Y-73660000D01*
X21590000Y-73660000D02*
X22090000Y-74160000D01*
X22090000Y-74160000D02*
X26055000Y-74160000D01*
X19050000Y-71120000D02*
X21590000Y-71120000D01*
X21590000Y-71120000D02*
X22630000Y-72160000D01*
X22630000Y-72160000D02*
X26055000Y-72160000D01*
X19050000Y-68580000D02*
X21590000Y-68580000D01*
X21590000Y-68580000D02*
X23170000Y-70160000D01*
X23170000Y-70160000D02*
X26055000Y-70160000D01*
X102760000Y-66995000D02*
X103820000Y-66995000D01*
X103820000Y-66995000D02*
X105410000Y-65405000D01*
X105410000Y-65405000D02*
X107950000Y-65405000D01*
X102550000Y-66995000D02*
X101490000Y-66995000D01*
X102760000Y-67945000D02*
X107950000Y-67945000D01*
X102760000Y-68895000D02*
X103820000Y-68895000D01*
X103820000Y-68895000D02*
X105410000Y-70485000D01*
X105410000Y-70485000D02*
X107950000Y-70485000D01*
X41255000Y-70160000D02*
X43505000Y-70160000D01*
X43505000Y-70160000D02*
X45085000Y-68580000D01*
X45085000Y-68580000D02*
X48260000Y-68580000D01*
X41255000Y-72160000D02*
X43410000Y-72160000D01*
X43410000Y-72160000D02*
X44450000Y-71120000D01*
X44450000Y-71120000D02*
X48260000Y-71120000D01*
X41255000Y-74160000D02*
X43950000Y-74160000D01*
X43950000Y-74160000D02*
X44450000Y-73660000D01*
X44450000Y-73660000D02*
X48260000Y-73660000D01*
X41255000Y-76160000D02*
X48220000Y-76160000D01*
X48220000Y-76160000D02*
X48260000Y-76200000D01*
X41255000Y-78160000D02*
X44505000Y-78160000D01*
X44505000Y-78160000D02*
X45085000Y-78740000D01*
X45085000Y-78740000D02*
X48260000Y-78740000D01*
X41255000Y-80160000D02*
X43965000Y-80160000D01*
X43965000Y-80160000D02*
X45085000Y-81280000D01*
X45085000Y-81280000D02*
X48260000Y-81280000D01*
X41255000Y-82160000D02*
X43425000Y-82160000D01*
X43425000Y-82160000D02*
X45085000Y-83820000D01*
X45085000Y-83820000D02*
X48260000Y-83820000D01*
X41255000Y-84160000D02*
X43520000Y-84160000D01*
X43520000Y-84160000D02*
X45720000Y-86360000D01*
X45720000Y-86360000D02*
X48260000Y-86360000D01*
X69850000Y-48260000D02*
X69850000Y-37465000D01*
X69850000Y-37465000D02*
X72320000Y-34995000D01*
X72320000Y-34995000D02*
X83775000Y-34995000D01*
X72390000Y-48260000D02*
X72390000Y-36195000D01*
X72390000Y-36195000D02*
X73190000Y-35395000D01*
X73190000Y-35395000D02*
X83775000Y-35395000D01*
X74930000Y-48260000D02*
X74930000Y-36195000D01*
X74930000Y-36195000D02*
X75330000Y-35795000D01*
X75330000Y-35795000D02*
X83775000Y-35795000D01*
X77470000Y-48260000D02*
X77470000Y-36830000D01*
X77470000Y-36830000D02*
X78105000Y-36195000D01*
X78105000Y-36195000D02*
X83775000Y-36195000D01*
X80010000Y-48260000D02*
X80010000Y-37465000D01*
X80010000Y-37465000D02*
X80880000Y-36595000D01*
X80880000Y-36595000D02*
X83775000Y-36595000D01*
X83775000Y-36995000D02*
X81115000Y-36995000D01*
X81115000Y-36995000D02*
X80645000Y-37465000D01*
X80645000Y-37465000D02*
X80645000Y-46355000D01*
X80645000Y-46355000D02*
X82550000Y-48260000D01*
X83775000Y-37395000D02*
X81985000Y-37395000D01*
X81985000Y-37395000D02*
X81280000Y-38100000D01*
X81280000Y-38100000D02*
X81280000Y-44450000D01*
X81280000Y-44450000D02*
X85090000Y-48260000D01*
X84525000Y-38145000D02*
X84525000Y-45155000D01*
X84525000Y-45155000D02*
X87630000Y-48260000D01*
X84925000Y-38145000D02*
X84925000Y-43015000D01*
X84925000Y-43015000D02*
X90170000Y-48260000D01*
X85325000Y-38145000D02*
X85325000Y-40875000D01*
X85325000Y-40875000D02*
X92710000Y-48260000D01*
X85725000Y-38145000D02*
X85725000Y-40005000D01*
X85725000Y-40005000D02*
X91440000Y-45720000D01*
X91440000Y-45720000D02*
X92710000Y-45720000D01*
X92710000Y-45720000D02*
X95250000Y-48260000D01*
X86125000Y-38145000D02*
X86125000Y-39770000D01*
X86125000Y-39770000D02*
X91440000Y-45085000D01*
X91440000Y-45085000D02*
X94615000Y-45085000D01*
X94615000Y-45085000D02*
X97790000Y-48260000D01*
X86525000Y-38145000D02*
X86525000Y-39535000D01*
X86525000Y-39535000D02*
X91440000Y-44450000D01*
X91440000Y-44450000D02*
X96520000Y-44450000D01*
X96520000Y-44450000D02*
X100330000Y-48260000D01*
X86925000Y-38145000D02*
X86925000Y-39300000D01*
X86925000Y-39300000D02*
X91440000Y-43815000D01*
X91440000Y-43815000D02*
X98425000Y-43815000D01*
X98425000Y-43815000D02*
X102870000Y-48260000D01*
X87675000Y-37395000D02*
X89605000Y-37395000D01*
X89605000Y-37395000D02*
X102235000Y-24765000D01*
X87675000Y-36995000D02*
X89370000Y-36995000D01*
X89370000Y-36995000D02*
X99695000Y-26670000D01*
X99695000Y-26670000D02*
X99695000Y-24765000D01*
X87675000Y-36595000D02*
X89135000Y-36595000D01*
X89135000Y-36595000D02*
X97155000Y-28575000D01*
X97155000Y-28575000D02*
X97155000Y-24765000D01*
X87675000Y-36195000D02*
X88900000Y-36195000D01*
X88900000Y-36195000D02*
X94615000Y-30480000D01*
X94615000Y-30480000D02*
X94615000Y-24765000D01*
X87675000Y-35795000D02*
X88665000Y-35795000D01*
X88665000Y-35795000D02*
X92075000Y-32385000D01*
X92075000Y-32385000D02*
X92075000Y-24765000D01*
X87675000Y-35395000D02*
X88430000Y-35395000D01*
X88430000Y-35395000D02*
X91440000Y-32385000D01*
X91440000Y-32385000D02*
X91440000Y-26670000D01*
X91440000Y-26670000D02*
X89535000Y-24765000D01*
X87675000Y-34995000D02*
X88195000Y-34995000D01*
X88195000Y-34995000D02*
X90170000Y-33020000D01*
X90170000Y-33020000D02*
X90170000Y-27940000D01*
X90170000Y-27940000D02*
X86995000Y-24765000D01*
X86925000Y-34245000D02*
X86995000Y-34175000D01*
X86995000Y-34175000D02*
X86995000Y-27305000D01*
X86995000Y-27305000D02*
X84455000Y-24765000D01*
X86525000Y-34245000D02*
X86525000Y-29375000D01*
X86525000Y-29375000D02*
X81915000Y-24765000D01*
X86125000Y-34245000D02*
X86125000Y-31515000D01*
X86125000Y-31515000D02*
X79375000Y-24765000D01*
X85725000Y-34245000D02*
X85725000Y-31750000D01*
X85725000Y-31750000D02*
X80645000Y-26670000D01*
X80645000Y-26670000D02*
X78740000Y-26670000D01*
X78740000Y-26670000D02*
X76835000Y-24765000D01*
X85325000Y-34245000D02*
X85325000Y-31985000D01*
X85325000Y-31985000D02*
X80645000Y-27305000D01*
X80645000Y-27305000D02*
X76835000Y-27305000D01*
X76835000Y-27305000D02*
X74295000Y-24765000D01*
X84925000Y-34245000D02*
X84925000Y-32220000D01*
X84925000Y-32220000D02*
X80645000Y-27940000D01*
X80645000Y-27940000D02*
X74930000Y-27940000D01*
X74930000Y-27940000D02*
X71755000Y-24765000D01*
X84525000Y-34245000D02*
X84525000Y-32455000D01*
X84525000Y-32455000D02*
X80645000Y-28575000D01*
X80645000Y-28575000D02*
X73025000Y-28575000D01*
X73025000Y-28575000D02*
X69215000Y-24765000D01*
X95250000Y-80010000D02*
X97155000Y-80010000D01*
X97155000Y-80010000D02*
X98745000Y-81600000D01*
X98745000Y-81600000D02*
X100440000Y-81600000D01*
X95250000Y-82550000D02*
X100440000Y-82550000D01*
X95250000Y-85090000D02*
X97155000Y-85090000D01*
X97155000Y-85090000D02*
X98745000Y-83500000D01*
X98745000Y-83500000D02*
X100440000Y-83500000D01*
X55245000Y-86360000D02*
X57785000Y-86360000D01*
X57785000Y-86360000D02*
X59350000Y-84795000D01*
X59350000Y-84795000D02*
X62885000Y-84795000D01*
X55245000Y-83820000D02*
X57785000Y-83820000D01*
X57785000Y-83820000D02*
X58810000Y-82795000D01*
X58810000Y-82795000D02*
X62885000Y-82795000D01*
X55245000Y-81280000D02*
X57150000Y-81280000D01*
X57150000Y-81280000D02*
X57635000Y-80795000D01*
X57635000Y-80795000D02*
X62885000Y-80795000D01*
X55245000Y-78740000D02*
X62830000Y-78740000D01*
X62830000Y-78740000D02*
X62885000Y-78795000D01*
X58380000Y-76795000D02*
X62885000Y-76795000D01*
X57785000Y-76200000D02*
X58380000Y-76795000D01*
X55245000Y-76200000D02*
X57785000Y-76200000D01*
X55245000Y-73660000D02*
X57785000Y-73660000D01*
X57785000Y-73660000D02*
X58920000Y-74795000D01*
X58920000Y-74795000D02*
X62885000Y-74795000D01*
X55245000Y-71120000D02*
X57150000Y-71120000D01*
X57150000Y-71120000D02*
X58825000Y-72795000D01*
X58825000Y-72795000D02*
X62885000Y-72795000D01*
X55245000Y-68580000D02*
X57785000Y-68580000D01*
X60000000Y-70795000D02*
X62885000Y-70795000D01*
X57785000Y-68580000D02*
X60000000Y-70795000D01*
X102760000Y-81600000D02*
X103185000Y-81600000D01*
X103185000Y-81600000D02*
X104775000Y-80010000D01*
X104775000Y-80010000D02*
X107950000Y-80010000D01*
X102760000Y-82550000D02*
X107950000Y-82550000D01*
X102760000Y-83500000D02*
X104455000Y-83500000D01*
X104455000Y-83500000D02*
X106045000Y-85090000D01*
X106045000Y-85090000D02*
X107950000Y-85090000D01*
X45720000Y-102870000D02*
X48260000Y-102870000D01*
X48260000Y-102870000D02*
X49850000Y-104460000D01*
X49850000Y-104460000D02*
X51545000Y-104460000D01*
X45720000Y-105410000D02*
X51545000Y-105410000D01*
X45720000Y-107950000D02*
X48260000Y-107950000D01*
X48260000Y-107950000D02*
X49850000Y-106360000D01*
X49850000Y-106360000D02*
X51545000Y-106360000D01*
X32910000Y-106360000D02*
X33970000Y-106360000D01*
X33970000Y-106360000D02*
X35560000Y-107950000D01*
X35560000Y-107950000D02*
X38100000Y-107950000D01*
X32910000Y-105410000D02*
X38100000Y-105410000D01*
X32910000Y-104460000D02*
X33970000Y-104460000D01*
X33970000Y-104460000D02*
X35560000Y-102870000D01*
X35560000Y-102870000D02*
X38100000Y-102870000D01*
X78085000Y-70795000D02*
X80335000Y-70795000D01*
X80335000Y-70795000D02*
X82550000Y-68580000D01*
X82550000Y-68580000D02*
X85725000Y-68580000D01*
X78085000Y-72795000D02*
X80240000Y-72795000D01*
X80240000Y-72795000D02*
X81915000Y-71120000D01*
X81915000Y-71120000D02*
X85725000Y-71120000D01*
X78085000Y-74795000D02*
X80780000Y-74795000D01*
X80780000Y-74795000D02*
X81915000Y-73660000D01*
X81915000Y-73660000D02*
X85725000Y-73660000D01*
X78085000Y-76795000D02*
X81320000Y-76795000D01*
X81320000Y-76795000D02*
X81915000Y-76200000D01*
X81915000Y-76200000D02*
X85725000Y-76200000D01*
X78085000Y-78795000D02*
X85670000Y-78795000D01*
X85670000Y-78795000D02*
X85725000Y-78740000D01*
X78085000Y-80795000D02*
X81430000Y-80795000D01*
X81430000Y-80795000D02*
X81915000Y-81280000D01*
X81915000Y-81280000D02*
X85725000Y-81280000D01*
X78085000Y-82795000D02*
X80890000Y-82795000D01*
X80890000Y-82795000D02*
X81915000Y-83820000D01*
X81915000Y-83820000D02*
X85725000Y-83820000D01*
X78085000Y-84795000D02*
X80350000Y-84795000D01*
X80350000Y-84795000D02*
X81915000Y-86360000D01*
X81915000Y-86360000D02*
X85725000Y-86360000D01*
X53865000Y-104460000D02*
X54290000Y-104460000D01*
X54290000Y-104460000D02*
X55880000Y-102870000D01*
X55880000Y-102870000D02*
X59055000Y-102870000D01*
X53865000Y-105410000D02*
X59055000Y-105410000D01*
X53865000Y-106360000D02*
X55560000Y-106360000D01*
X55560000Y-106360000D02*
X57150000Y-107950000D01*
X57150000Y-107950000D02*
X59055000Y-107950000D01*
X24765000Y-107950000D02*
X27305000Y-107950000D01*
X27305000Y-107950000D02*
X28895000Y-106360000D01*
X28895000Y-106360000D02*
X30590000Y-106360000D01*
X24765000Y-105410000D02*
X30590000Y-105410000D01*
X24765000Y-102870000D02*
X26035000Y-102870000D01*
X26035000Y-102870000D02*
X27625000Y-104460000D01*
X27625000Y-104460000D02*
X30590000Y-104460000D01*
X75010000Y-106390000D02*
X76545000Y-106390000D01*
X76545000Y-106390000D02*
X76835000Y-106680000D01*
X76835000Y-106680000D02*
X76835000Y-108585000D01*
X76835000Y-108585000D02*
X77470000Y-109220000D01*
X77470000Y-109220000D02*
X80010000Y-109220000D01*
X75010000Y-105740000D02*
X76530000Y-105740000D01*
X76530000Y-105740000D02*
X77470000Y-106680000D01*
X77470000Y-106680000D02*
X80010000Y-106680000D01*
X75010000Y-105080000D02*
X76530000Y-105080000D01*
X76530000Y-105080000D02*
X77470000Y-104140000D01*
X77470000Y-104140000D02*
X80010000Y-104140000D01*
X75010000Y-104430000D02*
X76545000Y-104430000D01*
X76545000Y-104430000D02*
X76835000Y-104140000D01*
X76835000Y-104140000D02*
X76835000Y-102235000D01*
X76835000Y-102235000D02*
X77470000Y-101600000D01*
X77470000Y-101600000D02*
X80010000Y-101600000D01*
X72310000Y-104430000D02*
X70775000Y-104430000D01*
X70775000Y-104430000D02*
X70485000Y-104140000D01*
X70485000Y-104140000D02*
X70485000Y-102235000D01*
X70485000Y-102235000D02*
X69850000Y-101600000D01*
X69850000Y-101600000D02*
X67310000Y-101600000D01*
X72310000Y-105080000D02*
X70155000Y-105080000D01*
X70155000Y-105080000D02*
X69215000Y-104140000D01*
X69215000Y-104140000D02*
X67310000Y-104140000D01*
X72310000Y-105740000D02*
X70155000Y-105740000D01*
X70155000Y-105740000D02*
X69215000Y-106680000D01*
X69215000Y-106680000D02*
X67310000Y-106680000D01*
X72310000Y-106390000D02*
X70775000Y-106390000D01*
X70775000Y-106390000D02*
X69215000Y-107950000D01*
X69215000Y-107950000D02*
X69215000Y-108585000D01*
X69215000Y-108585000D02*
X68580000Y-109220000D01*
X68580000Y-109220000D02*
X67310000Y-109220000D01*
X96600000Y-106390000D02*
X98135000Y-106390000D01*
X98135000Y-106390000D02*
X99060000Y-107315000D01*
X99060000Y-107315000D02*
X99060000Y-108585000D01*
X99060000Y-108585000D02*
X99695000Y-109220000D01*
X99695000Y-109220000D02*
X102235000Y-109220000D01*
X96600000Y-105740000D02*
X98755000Y-105740000D01*
X98755000Y-105740000D02*
X99695000Y-106680000D01*
X99695000Y-106680000D02*
X102235000Y-106680000D01*
X96600000Y-105080000D02*
X98755000Y-105080000D01*
X98755000Y-105080000D02*
X99695000Y-104140000D01*
X99695000Y-104140000D02*
X102235000Y-104140000D01*
X96600000Y-104430000D02*
X98135000Y-104430000D01*
X98135000Y-104430000D02*
X99060000Y-103505000D01*
X99060000Y-103505000D02*
X99060000Y-102235000D01*
X99060000Y-102235000D02*
X99695000Y-101600000D01*
X99695000Y-101600000D02*
X102235000Y-101600000D01*
X88900000Y-101600000D02*
X90805000Y-101600000D01*
X90805000Y-101600000D02*
X92075000Y-102870000D01*
X92075000Y-102870000D02*
X92075000Y-104140000D01*
X92075000Y-104140000D02*
X92365000Y-104430000D01*
X92365000Y-104430000D02*
X93900000Y-104430000D01*
X93900000Y-105080000D02*
X91745000Y-105080000D01*
X91745000Y-105080000D02*
X90805000Y-104140000D01*
X90805000Y-104140000D02*
X88900000Y-104140000D01*
X93900000Y-105740000D02*
X91745000Y-105740000D01*
X91745000Y-105740000D02*
X90805000Y-106680000D01*
X90805000Y-106680000D02*
X88900000Y-106680000D01*
X93900000Y-106390000D02*
X92365000Y-106390000D01*
X92365000Y-106390000D02*
X91440000Y-107315000D01*
X91440000Y-107315000D02*
X91440000Y-108585000D01*
X91440000Y-108585000D02*
X90805000Y-109220000D01*
X90805000Y-109220000D02*
X88900000Y-109220000D01*
M02*
