M48
INCH,TZ
T1C0.039
%
G90
G05
T1
X7500Y-27000
X7500Y-28000
X7500Y-29000
X7500Y-30000
X7500Y-31000
X7500Y-32000
X7500Y-33000
X7500Y-34000
X8500Y-9750
X8500Y-9750
X8500Y-18750
X8500Y-18750
X9500Y-9750
X9500Y-9750
X9500Y-18750
X9500Y-18750
X9750Y-40500
X9750Y-41500
X9750Y-42500
X10500Y-9750
X10500Y-9750
X10500Y-18750
X10500Y-18750
X11500Y-9750
X11500Y-9750
X11500Y-18750
X11500Y-18750
X12500Y-9750
X12500Y-9750
X12500Y-18750
X12500Y-18750
X13500Y-9750
X13500Y-9750
X13500Y-18750
X13500Y-18750
X14500Y-9750
X14500Y-9750
X14500Y-18750
X14500Y-18750
X15000Y-40500
X15000Y-41500
X15000Y-42500
X15500Y-9750
X15500Y-9750
X15500Y-18750
X15500Y-18750
X16500Y-9750
X16500Y-9750
X16500Y-18750
X16500Y-18750
X17500Y-9750
X17500Y-9750
X17500Y-18750
X17500Y-18750
X18000Y-40500
X18000Y-41500
X18000Y-42500
X18500Y-9750
X18500Y-9750
X18500Y-18750
X18500Y-18750
X19000Y-27000
X19000Y-28000
X19000Y-29000
X19000Y-30000
X19000Y-31000
X19000Y-32000
X19000Y-33000
X19000Y-34000
X19500Y-9750
X19500Y-9750
X19500Y-18750
X19500Y-18750
X20500Y-9750
X20500Y-9750
X20500Y-18750
X20500Y-18750
X21500Y-9750
X21500Y-9750
X21500Y-18750
X21500Y-18750
X21750Y-27000
X21750Y-28000
X21750Y-29000
X21750Y-30000
X21750Y-31000
X21750Y-32000
X21750Y-33000
X21750Y-34000
X23250Y-40500
X23250Y-41500
X23250Y-42500
X26500Y-40000
X26500Y-41000
X26500Y-42000
X26500Y-43000
X27250Y-9750
X27500Y-19000
X28250Y-9750
X28500Y-19000
X29250Y-9750
X29500Y-19000
X30250Y-9750
X30500Y-19000
X31250Y-9750
X31500Y-19000
X31500Y-40000
X31500Y-41000
X31500Y-42000
X31500Y-43000
X32250Y-9750
X32500Y-19000
X33250Y-9750
X33500Y-19000
X33750Y-27000
X33750Y-28000
X33750Y-29000
X33750Y-30000
X33750Y-31000
X33750Y-32000
X33750Y-33000
X33750Y-34000
X34250Y-9750
X34500Y-19000
X35000Y-40000
X35000Y-41000
X35000Y-42000
X35000Y-43000
X35250Y-9750
X35500Y-19000
X36250Y-9750
X36500Y-19000
X37250Y-9750
X37500Y-19000
X37500Y-25750
X37500Y-26750
X37500Y-27750
X37500Y-31500
X37500Y-32500
X37500Y-33500
X38250Y-9750
X38500Y-19000
X39250Y-9750
X39500Y-19000
X40250Y-9750
X40250Y-40000
X40250Y-41000
X40250Y-42000
X40250Y-43000
X40500Y-19000
X42500Y-25750
X42500Y-26750
X42500Y-27750
X42500Y-31500
X42500Y-32500
X42500Y-33500
T0
M30
