G04 #@! TF.FileFunction,Soldermask,Top*
%FSLAX46Y46*%
G04 Gerber Fmt 4.6, Leading zero omitted, Abs format (unit mm)*
G04 Created by KiCad (PCBNEW 4.0.7) date 02/20/18 21:57:51*
%MOMM*%
%LPD*%
G01*
G04 APERTURE LIST*
%ADD10C,0.100000*%
%ADD11R,1.200000X0.600000*%
%ADD12R,0.600000X1.200000*%
%ADD13R,1.600000X1.600000*%
%ADD14R,2.100000X2.100000*%
%ADD15O,2.100000X2.100000*%
%ADD16R,1.100000X0.910000*%
%ADD17R,2.900000X1.400000*%
%ADD18R,1.400000X2.200000*%
%ADD19R,1.960000X0.800000*%
G04 APERTURE END LIST*
D10*
D11*
X40050000Y-37395000D03*
X40050000Y-36995000D03*
X40050000Y-36595000D03*
X40050000Y-36195000D03*
X40050000Y-35795000D03*
X40050000Y-35395000D03*
X40050000Y-34995000D03*
D12*
X39300000Y-34245000D03*
X38900000Y-34245000D03*
X38500000Y-34245000D03*
X38100000Y-34245000D03*
X37700000Y-34245000D03*
X37300000Y-34245000D03*
X36900000Y-34245000D03*
D11*
X36150000Y-34995000D03*
X36150000Y-35395000D03*
X36150000Y-35795000D03*
X36150000Y-36195000D03*
X36150000Y-36595000D03*
X36150000Y-36995000D03*
X36150000Y-37395000D03*
D12*
X36900000Y-38145000D03*
X37300000Y-38145000D03*
X37700000Y-38145000D03*
X38100000Y-38145000D03*
X38500000Y-38145000D03*
X38900000Y-38145000D03*
X39300000Y-38145000D03*
D13*
X37500000Y-35595000D03*
X37500000Y-36795000D03*
X38700000Y-35595000D03*
X38700000Y-36795000D03*
D14*
X54610000Y-24765000D03*
D15*
X52070000Y-24765000D03*
X49530000Y-24765000D03*
X46990000Y-24765000D03*
X44450000Y-24765000D03*
X41910000Y-24765000D03*
X39370000Y-24765000D03*
X36830000Y-24765000D03*
X34290000Y-24765000D03*
X31750000Y-24765000D03*
X29210000Y-24765000D03*
X26670000Y-24765000D03*
X24130000Y-24765000D03*
X21590000Y-24765000D03*
D14*
X21590000Y-47625000D03*
D15*
X24130000Y-47625000D03*
X26670000Y-47625000D03*
X29210000Y-47625000D03*
X31750000Y-47625000D03*
X34290000Y-47625000D03*
X36830000Y-47625000D03*
X39370000Y-47625000D03*
X41910000Y-47625000D03*
X44450000Y-47625000D03*
X46990000Y-47625000D03*
X49530000Y-47625000D03*
X52070000Y-47625000D03*
X54610000Y-47625000D03*
D14*
X21590000Y-47625000D03*
D15*
X24130000Y-47625000D03*
X26670000Y-47625000D03*
X29210000Y-47625000D03*
X31750000Y-47625000D03*
X34290000Y-47625000D03*
X36830000Y-47625000D03*
X39370000Y-47625000D03*
X41910000Y-47625000D03*
X44450000Y-47625000D03*
X46990000Y-47625000D03*
X49530000Y-47625000D03*
X52070000Y-47625000D03*
X54610000Y-47625000D03*
D14*
X54610000Y-24765000D03*
D15*
X52070000Y-24765000D03*
X49530000Y-24765000D03*
X46990000Y-24765000D03*
X44450000Y-24765000D03*
X41910000Y-24765000D03*
X39370000Y-24765000D03*
X36830000Y-24765000D03*
X34290000Y-24765000D03*
X31750000Y-24765000D03*
X29210000Y-24765000D03*
X26670000Y-24765000D03*
X24130000Y-24765000D03*
X21590000Y-24765000D03*
D11*
X40050000Y-37395000D03*
X40050000Y-36995000D03*
X40050000Y-36595000D03*
X40050000Y-36195000D03*
X40050000Y-35795000D03*
X40050000Y-35395000D03*
X40050000Y-34995000D03*
D12*
X39300000Y-34245000D03*
X38900000Y-34245000D03*
X38500000Y-34245000D03*
X38100000Y-34245000D03*
X37700000Y-34245000D03*
X37300000Y-34245000D03*
X36900000Y-34245000D03*
D11*
X36150000Y-34995000D03*
X36150000Y-35395000D03*
X36150000Y-35795000D03*
X36150000Y-36195000D03*
X36150000Y-36595000D03*
X36150000Y-36995000D03*
X36150000Y-37395000D03*
D12*
X36900000Y-38145000D03*
X37300000Y-38145000D03*
X37700000Y-38145000D03*
X38100000Y-38145000D03*
X38500000Y-38145000D03*
X38900000Y-38145000D03*
X39300000Y-38145000D03*
D13*
X37500000Y-35595000D03*
X37500000Y-36795000D03*
X38700000Y-35595000D03*
X38700000Y-36795000D03*
D14*
X95250000Y-65405000D03*
D15*
X95250000Y-67945000D03*
X95250000Y-70485000D03*
D14*
X19050000Y-86360000D03*
D15*
X19050000Y-83820000D03*
X19050000Y-81280000D03*
X19050000Y-78740000D03*
X19050000Y-76200000D03*
X19050000Y-73660000D03*
X19050000Y-71120000D03*
X19050000Y-68580000D03*
D14*
X107950000Y-65405000D03*
D15*
X107950000Y-67945000D03*
X107950000Y-70485000D03*
D14*
X48260000Y-68580000D03*
D15*
X48260000Y-71120000D03*
X48260000Y-73660000D03*
X48260000Y-76200000D03*
X48260000Y-78740000D03*
X48260000Y-81280000D03*
X48260000Y-83820000D03*
X48260000Y-86360000D03*
D14*
X69850000Y-48260000D03*
D15*
X72390000Y-48260000D03*
X74930000Y-48260000D03*
X77470000Y-48260000D03*
X80010000Y-48260000D03*
X82550000Y-48260000D03*
X85090000Y-48260000D03*
X87630000Y-48260000D03*
X90170000Y-48260000D03*
X92710000Y-48260000D03*
X95250000Y-48260000D03*
X97790000Y-48260000D03*
X100330000Y-48260000D03*
X102870000Y-48260000D03*
D14*
X102235000Y-24765000D03*
D15*
X99695000Y-24765000D03*
X97155000Y-24765000D03*
X94615000Y-24765000D03*
X92075000Y-24765000D03*
X89535000Y-24765000D03*
X86995000Y-24765000D03*
X84455000Y-24765000D03*
X81915000Y-24765000D03*
X79375000Y-24765000D03*
X76835000Y-24765000D03*
X74295000Y-24765000D03*
X71755000Y-24765000D03*
X69215000Y-24765000D03*
D14*
X95250000Y-80010000D03*
D15*
X95250000Y-82550000D03*
X95250000Y-85090000D03*
D14*
X55245000Y-86360000D03*
D15*
X55245000Y-83820000D03*
X55245000Y-81280000D03*
X55245000Y-78740000D03*
X55245000Y-76200000D03*
X55245000Y-73660000D03*
X55245000Y-71120000D03*
X55245000Y-68580000D03*
D14*
X107950000Y-80010000D03*
D15*
X107950000Y-82550000D03*
X107950000Y-85090000D03*
D14*
X45720000Y-102870000D03*
D15*
X45720000Y-105410000D03*
X45720000Y-107950000D03*
D14*
X38100000Y-107950000D03*
D15*
X38100000Y-105410000D03*
X38100000Y-102870000D03*
D14*
X85725000Y-68580000D03*
D15*
X85725000Y-71120000D03*
X85725000Y-73660000D03*
X85725000Y-76200000D03*
X85725000Y-78740000D03*
X85725000Y-81280000D03*
X85725000Y-83820000D03*
X85725000Y-86360000D03*
D14*
X59055000Y-102870000D03*
D15*
X59055000Y-105410000D03*
X59055000Y-107950000D03*
D14*
X24765000Y-107950000D03*
D15*
X24765000Y-105410000D03*
X24765000Y-102870000D03*
D16*
X100440000Y-66995000D03*
X100440000Y-67945000D03*
X100440000Y-68895000D03*
X102760000Y-68895000D03*
X102760000Y-67945000D03*
X102760000Y-66995000D03*
D11*
X87675000Y-37395000D03*
X87675000Y-36995000D03*
X87675000Y-36595000D03*
X87675000Y-36195000D03*
X87675000Y-35795000D03*
X87675000Y-35395000D03*
X87675000Y-34995000D03*
D12*
X86925000Y-34245000D03*
X86525000Y-34245000D03*
X86125000Y-34245000D03*
X85725000Y-34245000D03*
X85325000Y-34245000D03*
X84925000Y-34245000D03*
X84525000Y-34245000D03*
D11*
X83775000Y-34995000D03*
X83775000Y-35395000D03*
X83775000Y-35795000D03*
X83775000Y-36195000D03*
X83775000Y-36595000D03*
X83775000Y-36995000D03*
X83775000Y-37395000D03*
D12*
X84525000Y-38145000D03*
X84925000Y-38145000D03*
X85325000Y-38145000D03*
X85725000Y-38145000D03*
X86125000Y-38145000D03*
X86525000Y-38145000D03*
X86925000Y-38145000D03*
D13*
X85125000Y-35595000D03*
X85125000Y-36795000D03*
X86325000Y-35595000D03*
X86325000Y-36795000D03*
D16*
X100440000Y-81600000D03*
X100440000Y-82550000D03*
X100440000Y-83500000D03*
X102760000Y-83500000D03*
X102760000Y-82550000D03*
X102760000Y-81600000D03*
X51545000Y-104460000D03*
X51545000Y-105410000D03*
X51545000Y-106360000D03*
X53865000Y-106360000D03*
X53865000Y-105410000D03*
X53865000Y-104460000D03*
D17*
X26055000Y-70160000D03*
X26055000Y-72160000D03*
X26055000Y-74160000D03*
X26055000Y-76160000D03*
X26055000Y-78160000D03*
X26055000Y-80160000D03*
X26055000Y-82160000D03*
X26055000Y-84160000D03*
D18*
X28655000Y-85660000D03*
X30655000Y-85660000D03*
X32655000Y-85660000D03*
X34655000Y-85660000D03*
X36655000Y-85660000D03*
X38655000Y-85660000D03*
D17*
X41255000Y-84160000D03*
X41255000Y-82160000D03*
X41255000Y-80160000D03*
X41255000Y-78160000D03*
X41255000Y-76160000D03*
X41255000Y-74160000D03*
X41255000Y-72160000D03*
X41255000Y-70160000D03*
X62885000Y-70795000D03*
X62885000Y-72795000D03*
X62885000Y-74795000D03*
X62885000Y-76795000D03*
X62885000Y-78795000D03*
X62885000Y-80795000D03*
X62885000Y-82795000D03*
X62885000Y-84795000D03*
D18*
X65485000Y-86295000D03*
X67485000Y-86295000D03*
X69485000Y-86295000D03*
X71485000Y-86295000D03*
X73485000Y-86295000D03*
X75485000Y-86295000D03*
D17*
X78085000Y-84795000D03*
X78085000Y-82795000D03*
X78085000Y-80795000D03*
X78085000Y-78795000D03*
X78085000Y-76795000D03*
X78085000Y-74795000D03*
X78085000Y-72795000D03*
X78085000Y-70795000D03*
D16*
X32910000Y-106360000D03*
X32910000Y-105410000D03*
X32910000Y-104460000D03*
X30590000Y-104460000D03*
X30590000Y-105410000D03*
X30590000Y-106360000D03*
D14*
X80010000Y-109220000D03*
D15*
X80010000Y-106680000D03*
X80010000Y-104140000D03*
X80010000Y-101600000D03*
D14*
X67310000Y-101600000D03*
D15*
X67310000Y-104140000D03*
X67310000Y-106680000D03*
X67310000Y-109220000D03*
D14*
X102235000Y-109220000D03*
D15*
X102235000Y-106680000D03*
X102235000Y-104140000D03*
X102235000Y-101600000D03*
D14*
X88900000Y-101600000D03*
D15*
X88900000Y-104140000D03*
X88900000Y-106680000D03*
X88900000Y-109220000D03*
D19*
X72310000Y-104430000D03*
X72310000Y-105080000D03*
X72310000Y-105740000D03*
X72310000Y-106390000D03*
X75010000Y-106390000D03*
X75010000Y-105740000D03*
X75010000Y-105080000D03*
X75010000Y-104430000D03*
X93900000Y-104430000D03*
X93900000Y-105080000D03*
X93900000Y-105740000D03*
X93900000Y-106390000D03*
X96600000Y-106390000D03*
X96600000Y-105740000D03*
X96600000Y-105080000D03*
X96600000Y-104430000D03*
M02*
